<svg width="20" height="25" viewBox="0 0 20 25" fill="none" xmlns="http://www.w3.org/2000/svg">
<path fill-rule="evenodd" clip-rule="evenodd" d="M7.81079 3.67167C4.98366 3.67167 2.69181 6.5764 2.69181 10.1596C2.69181 13.7426 4.98366 16.6474 7.81079 16.6474C10.6379 16.6474 12.9298 13.7426 12.9298 10.1596C12.9298 6.5764 10.6379 3.67167 7.81079 3.67167ZM0.132324 10.1596C0.132324 4.78482 3.57009 0.427734 7.81079 0.427734C12.0515 0.427734 15.4893 4.78482 15.4893 10.1596C15.4893 12.2613 14.9635 14.2075 14.0696 15.7983L18.9537 21.9884C19.4534 22.6218 19.4534 23.6488 18.9537 24.2822C18.4539 24.9156 17.6436 24.9156 17.1438 24.2822L12.2598 18.0921C11.0046 19.2251 9.46908 19.8914 7.81079 19.8914C3.57009 19.8914 0.132324 15.5343 0.132324 10.1596Z" fill="#373867"/>
</svg>
