<svg id="svg" version="1.1" xmlns="http://www.w3.org/2000/svg" xmlns:xlink="http://www.w3.org/1999/xlink" width="400" height="400" viewBox="0, 0, 400,400"><g id="svgg"><path id="path0" d="M242.400 99.989 C 238.140 100.414,236.664 100.727,232.667 102.054 C 228.954 103.287,223.094 105.933,222.867 106.479 C 222.793 106.656,222.556 106.800,222.338 106.800 C 222.121 106.800,220.741 107.654,219.272 108.699 C 210.785 114.729,205.539 121.333,201.077 131.600 C 200.742 132.370,200.082 134.440,199.610 136.200 C 199.137 137.960,198.586 139.940,198.386 140.600 C 197.427 143.753,197.575 156.739,198.618 160.900 L 198.893 162.000 195.171 162.000 C 193.123 162.000,190.447 161.824,189.224 161.610 C 188.001 161.395,184.660 160.849,181.800 160.395 C 175.849 159.451,171.315 158.492,170.305 157.964 C 169.923 157.764,169.257 157.600,168.824 157.600 C 168.392 157.600,167.624 157.439,167.119 157.242 C 166.613 157.045,165.390 156.664,164.400 156.395 C 161.744 155.675,156.282 153.824,153.700 152.768 C 153.205 152.566,152.305 152.196,151.700 151.946 C 151.095 151.697,150.240 151.355,149.800 151.187 C 145.739 149.636,134.006 143.702,131.538 141.953 C 130.954 141.539,130.279 141.200,130.038 141.200 C 129.797 141.200,129.600 141.020,129.600 140.800 C 129.600 140.580,129.400 140.400,129.157 140.400 C 128.529 140.400,120.545 134.838,115.800 131.095 C 108.221 125.117,102.614 119.672,94.529 110.441 L 93.339 109.082 91.798 112.241 C 90.950 113.979,90.087 115.850,89.881 116.400 C 89.675 116.950,89.348 117.713,89.153 118.095 C 88.959 118.477,88.800 119.206,88.800 119.715 C 88.800 120.224,88.638 120.811,88.441 121.020 C 88.244 121.229,87.980 122.120,87.856 123.000 C 87.732 123.880,87.453 125.860,87.236 127.400 C 86.498 132.636,86.800 140.089,87.974 145.600 C 88.185 146.590,88.470 147.940,88.609 148.600 C 88.747 149.260,89.027 150.205,89.230 150.700 C 89.434 151.195,89.759 152.005,89.952 152.500 C 93.094 160.524,99.030 168.777,105.056 173.500 C 108.926 176.533,108.904 176.976,104.894 176.701 C 103.186 176.584,100.981 176.274,99.994 176.013 C 95.795 174.899,94.980 174.644,94.620 174.330 C 94.411 174.149,93.914 174.000,93.515 174.000 C 93.116 174.000,92.477 173.835,92.095 173.634 C 90.999 173.057,86.798 171.200,86.589 171.200 C 86.176 171.200,86.451 176.394,87.035 179.600 C 87.375 181.470,87.751 183.587,87.871 184.304 C 87.991 185.021,88.249 185.706,88.444 185.827 C 88.640 185.948,88.800 186.476,88.800 187.000 C 88.800 187.524,88.980 188.064,89.200 188.200 C 89.420 188.336,89.600 188.753,89.600 189.127 C 89.600 189.992,93.197 197.208,94.512 198.980 C 94.684 199.211,95.547 200.390,96.431 201.600 C 98.403 204.301,102.094 208.177,104.668 210.250 C 105.726 211.103,106.943 212.115,107.371 212.500 C 107.800 212.885,108.387 213.200,108.675 213.200 C 108.964 213.200,109.200 213.380,109.200 213.600 C 109.200 213.820,109.455 214.000,109.767 214.000 C 110.078 214.000,110.393 214.151,110.467 214.335 C 110.540 214.519,112.400 215.531,114.600 216.585 C 116.800 217.638,118.913 218.658,119.295 218.850 C 119.677 219.043,120.341 219.200,120.771 219.200 C 121.201 219.200,121.664 219.380,121.800 219.600 C 121.936 219.820,122.557 220.000,123.179 220.000 C 124.578 220.000,126.523 221.419,125.600 221.766 C 122.182 223.049,110.341 223.674,106.447 222.776 C 104.440 222.314,104.028 222.512,104.715 223.613 C 104.982 224.040,105.200 224.752,105.200 225.195 C 105.200 225.638,105.380 226.000,105.600 226.000 C 105.820 226.000,106.000 226.255,106.000 226.567 C 106.000 227.196,108.471 232.003,109.647 233.662 C 110.061 234.246,110.400 234.906,110.400 235.128 C 110.400 235.351,110.541 235.593,110.713 235.667 C 110.886 235.740,111.854 236.880,112.864 238.200 C 114.820 240.754,118.761 244.633,121.400 246.602 C 122.280 247.258,123.090 247.895,123.200 248.017 C 123.594 248.453,131.253 252.800,131.628 252.800 C 131.839 252.800,132.368 252.980,132.805 253.200 C 133.242 253.420,133.958 253.780,134.395 254.000 C 134.832 254.220,135.541 254.400,135.971 254.400 C 136.401 254.400,136.849 254.556,136.967 254.746 C 137.084 254.936,137.770 255.200,138.490 255.332 C 139.211 255.464,141.060 255.850,142.600 256.189 C 144.140 256.529,146.615 256.921,148.100 257.061 C 152.143 257.441,151.769 258.073,144.797 262.641 C 132.385 270.774,119.750 275.743,105.200 278.216 C 99.068 279.258,83.697 279.914,79.900 279.296 C 78.635 279.090,77.602 279.029,77.605 279.161 C 77.611 279.475,80.281 281.200,80.761 281.200 C 80.966 281.200,81.193 281.335,81.267 281.500 C 81.440 281.891,84.263 283.421,90.200 286.344 C 95.579 288.991,96.461 289.387,101.000 291.186 C 102.760 291.884,104.513 292.622,104.895 292.827 C 105.277 293.032,105.941 293.200,106.371 293.200 C 106.801 293.200,107.264 293.380,107.400 293.600 C 107.536 293.820,107.999 294.000,108.429 294.000 C 108.859 294.000,109.523 294.162,109.905 294.361 C 110.287 294.560,111.320 294.915,112.200 295.150 C 116.646 296.341,118.684 296.924,119.519 297.246 C 120.024 297.441,120.933 297.600,121.539 297.600 C 122.144 297.600,122.811 297.762,123.020 297.959 C 123.229 298.156,124.120 298.421,125.000 298.547 C 125.880 298.674,127.770 298.960,129.200 299.185 C 147.779 302.099,167.495 301.832,184.600 298.434 C 185.700 298.216,187.410 297.879,188.400 297.686 C 191.071 297.166,199.694 294.804,200.495 294.373 C 200.877 294.168,201.541 294.000,201.971 294.000 C 202.401 294.000,202.864 293.820,203.000 293.600 C 203.136 293.380,203.599 293.200,204.029 293.200 C 204.459 293.200,205.123 293.035,205.505 292.834 C 206.344 292.391,208.187 291.629,211.400 290.396 C 212.720 289.890,213.971 289.323,214.180 289.138 C 214.389 288.952,214.884 288.800,215.280 288.800 C 215.676 288.800,216.000 288.620,216.000 288.400 C 216.000 288.180,216.250 288.000,216.555 288.000 C 217.851 288.000,229.372 281.632,234.472 278.097 C 235.502 277.384,236.522 276.800,236.739 276.800 C 236.956 276.800,237.193 276.665,237.267 276.500 C 237.340 276.335,238.840 275.129,240.600 273.821 C 242.360 272.513,244.000 271.253,244.244 271.021 C 244.489 270.789,245.376 270.060,246.215 269.400 C 251.201 265.479,260.790 255.830,265.439 250.055 C 265.858 249.536,266.382 248.906,266.604 248.655 C 267.138 248.054,271.769 241.698,274.129 238.328 C 275.158 236.859,276.000 235.464,276.000 235.228 C 276.000 234.993,276.135 234.799,276.300 234.797 C 276.465 234.795,276.797 234.390,277.038 233.897 C 277.279 233.404,278.455 231.290,279.651 229.200 C 282.223 224.707,285.999 217.012,287.601 213.000 C 287.777 212.560,288.298 211.347,288.760 210.304 C 289.222 209.262,289.600 208.276,289.600 208.113 C 289.600 207.707,291.561 202.365,292.025 201.505 C 292.231 201.123,292.400 200.459,292.400 200.029 C 292.400 199.599,292.580 199.136,292.800 199.000 C 293.020 198.864,293.200 198.234,293.200 197.600 C 293.200 196.966,293.360 196.348,293.556 196.227 C 293.751 196.106,294.008 195.421,294.127 194.704 C 294.245 193.987,294.522 192.680,294.742 191.800 C 296.177 186.058,297.127 181.511,297.626 178.000 C 298.662 170.715,298.851 168.248,299.053 159.331 L 299.272 149.662 301.478 147.931 C 304.004 145.950,303.643 146.255,307.714 142.656 C 311.468 139.338,314.910 135.809,317.924 132.188 C 321.164 128.298,324.226 124.000,323.758 124.000 C 323.603 124.000,322.560 124.428,321.439 124.951 C 320.317 125.474,318.680 126.128,317.800 126.406 C 316.920 126.684,315.840 127.045,315.400 127.210 C 314.612 127.504,312.151 128.211,309.800 128.818 C 309.140 128.988,307.957 129.324,307.172 129.564 C 306.386 129.804,305.249 130.000,304.645 130.000 C 304.041 130.000,303.244 130.161,302.874 130.359 C 301.406 131.140,296.800 131.349,296.800 130.634 C 296.800 130.272,297.115 129.859,297.500 129.717 C 297.885 129.575,298.290 129.343,298.400 129.203 C 298.510 129.062,299.410 128.395,300.400 127.720 C 305.271 124.400,312.367 115.614,315.199 109.395 C 315.900 107.858,316.636 106.287,316.836 105.905 C 317.248 105.120,317.321 104.000,316.962 104.000 C 316.560 104.000,314.208 105.381,314.067 105.700 C 313.993 105.865,313.588 106.000,313.167 106.000 C 312.745 106.000,312.400 106.180,312.400 106.400 C 312.400 106.620,312.191 106.800,311.937 106.800 C 311.682 106.800,310.107 107.454,308.437 108.254 C 306.766 109.054,304.950 109.885,304.400 110.101 C 303.850 110.317,303.087 110.652,302.705 110.847 C 302.323 111.041,301.736 111.200,301.400 111.200 C 301.064 111.200,300.477 111.378,300.095 111.595 C 299.052 112.187,292.612 114.183,289.150 114.987 C 285.658 115.799,285.742 115.826,282.532 112.800 C 280.127 110.533,276.922 108.109,274.552 106.766 C 273.808 106.345,272.615 105.670,271.900 105.267 C 269.462 103.891,260.704 100.800,259.245 100.800 C 258.751 100.800,258.044 100.640,257.674 100.443 C 256.733 99.946,246.026 99.627,242.400 99.989 " stroke="none" fill="#fbfbfc" fill-rule="evenodd"></path><path id="path1" d="M0.400 200.200 L 0.400 400.000 200.200 400.000 L 400.000 400.000 400.000 200.200 L 400.000 0.400 200.200 0.400 L 0.400 0.400 0.400 200.200 M256.103 99.143 C 256.354 99.394,257.514 99.600,258.680 99.600 C 259.846 99.600,260.800 99.780,260.800 100.000 C 260.800 100.220,261.342 100.400,262.005 100.400 C 262.668 100.400,263.523 100.558,263.905 100.751 C 264.287 100.944,265.320 101.316,266.200 101.577 C 267.674 102.015,273.539 104.739,274.000 105.200 C 274.110 105.310,274.605 105.625,275.100 105.900 C 275.595 106.175,276.405 106.625,276.900 106.900 C 277.395 107.175,277.890 107.491,278.000 107.602 C 278.110 107.714,278.920 108.340,279.800 108.995 C 280.680 109.649,281.961 110.728,282.647 111.392 C 285.236 113.899,285.692 114.145,287.587 114.048 C 288.584 113.997,289.571 113.785,289.780 113.578 C 289.989 113.370,290.844 113.200,291.680 113.200 C 292.516 113.200,293.200 113.020,293.200 112.800 C 293.200 112.580,293.729 112.400,294.376 112.400 C 295.023 112.400,295.664 112.220,295.800 112.000 C 295.936 111.780,296.577 111.600,297.224 111.600 C 297.871 111.600,298.400 111.457,298.400 111.283 C 298.400 111.108,299.435 110.627,300.700 110.212 C 301.965 109.798,303.171 109.310,303.380 109.129 C 303.589 108.948,304.084 108.800,304.480 108.800 C 304.876 108.800,305.200 108.620,305.200 108.400 C 305.200 108.180,305.472 108.000,305.805 108.000 C 306.138 108.000,306.723 107.835,307.105 107.633 C 308.141 107.085,311.562 105.600,311.788 105.600 C 311.896 105.600,312.989 104.957,314.217 104.172 C 317.938 101.791,319.688 102.320,318.234 105.385 C 317.885 106.120,317.600 106.919,317.600 107.160 C 317.600 107.402,317.420 107.600,317.200 107.600 C 316.980 107.600,316.800 108.050,316.800 108.600 C 316.800 109.150,316.620 109.600,316.400 109.600 C 316.180 109.600,316.000 109.960,316.000 110.400 C 316.000 110.840,315.820 111.200,315.600 111.200 C 315.380 111.200,315.200 111.473,315.200 111.806 C 315.200 114.013,306.004 125.188,301.874 128.000 C 299.996 129.279,300.021 129.600,302.000 129.600 C 302.880 129.600,303.600 129.420,303.600 129.200 C 303.600 128.980,304.380 128.800,305.333 128.800 C 306.287 128.800,307.183 128.684,307.325 128.541 C 307.754 128.113,311.736 126.827,312.676 126.813 C 313.158 126.806,313.664 126.620,313.800 126.400 C 313.936 126.180,314.577 126.000,315.224 126.000 C 315.871 126.000,316.400 125.820,316.400 125.600 C 316.400 125.380,316.839 125.200,317.376 125.200 C 317.913 125.200,318.464 125.020,318.600 124.800 C 318.736 124.580,319.199 124.400,319.629 124.400 C 320.059 124.400,320.813 124.192,321.305 123.938 C 323.262 122.926,323.626 122.800,324.595 122.800 C 326.323 122.800,325.665 124.536,322.581 128.114 C 322.351 128.381,321.568 129.469,320.841 130.530 C 319.080 133.103,306.826 145.400,303.800 147.631 C 302.480 148.604,301.175 149.612,300.900 149.871 C 300.537 150.214,300.400 152.267,300.400 157.371 C 300.400 161.790,300.251 164.400,300.000 164.400 C 299.756 164.400,299.600 166.267,299.600 169.200 C 299.600 172.133,299.444 174.000,299.200 174.000 C 298.972 174.000,298.800 175.192,298.800 176.776 C 298.800 178.303,298.620 179.664,298.400 179.800 C 298.180 179.936,298.000 180.926,298.000 182.000 C 298.000 183.074,297.820 184.064,297.600 184.200 C 297.380 184.336,297.200 185.326,297.200 186.400 C 297.200 187.474,297.020 188.464,296.800 188.600 C 296.580 188.736,296.400 189.456,296.400 190.200 C 296.400 190.944,296.220 191.664,296.000 191.800 C 295.780 191.936,295.600 192.408,295.600 192.848 C 295.600 193.835,294.411 197.660,293.942 198.180 C 293.754 198.389,293.600 198.976,293.600 199.485 C 293.600 199.994,293.442 200.723,293.249 201.105 C 292.713 202.167,292.000 204.576,292.000 205.328 C 292.000 205.698,291.820 206.000,291.600 206.000 C 291.380 206.000,291.200 206.540,291.200 207.200 C 291.200 207.860,291.020 208.400,290.800 208.400 C 290.580 208.400,290.400 208.762,290.400 209.205 C 290.400 209.648,290.238 210.323,290.041 210.705 C 288.609 213.473,287.600 215.760,287.600 216.237 C 287.600 216.547,287.420 216.800,287.200 216.800 C 286.980 216.800,286.800 217.250,286.800 217.800 C 286.800 218.350,286.620 218.800,286.400 218.800 C 286.180 218.800,286.000 219.160,286.000 219.600 C 286.000 220.040,285.820 220.400,285.600 220.400 C 285.380 220.400,285.200 220.664,285.200 220.986 C 285.200 221.688,283.222 225.344,282.739 225.533 C 282.553 225.607,282.400 225.917,282.400 226.223 C 282.400 226.528,281.942 227.548,281.382 228.489 C 280.823 229.430,280.262 230.515,280.136 230.900 C 280.010 231.285,279.748 231.600,279.553 231.600 C 279.359 231.600,279.200 231.889,279.200 232.242 C 279.200 232.595,278.747 233.450,278.194 234.142 C 277.641 234.834,277.046 235.580,276.872 235.800 C 276.698 236.020,276.297 236.785,275.980 237.500 C 275.664 238.215,275.269 238.800,275.102 238.800 C 274.936 238.800,274.800 239.025,274.800 239.300 C 274.799 239.575,274.394 240.283,273.900 240.874 C 273.405 241.464,272.280 242.972,271.400 244.223 C 270.520 245.474,269.620 246.701,269.400 246.949 C 269.180 247.197,268.527 248.030,267.948 248.800 C 267.370 249.570,266.380 250.743,265.748 251.407 C 265.117 252.071,263.796 253.601,262.814 254.807 C 260.679 257.429,252.090 266.028,249.636 268.000 C 248.678 268.770,247.513 269.764,247.047 270.210 C 246.581 270.655,245.480 271.553,244.600 272.205 C 243.720 272.858,242.709 273.708,242.353 274.096 C 241.997 274.483,241.547 274.800,241.353 274.801 C 241.159 274.801,240.370 275.341,239.600 276.000 C 238.830 276.659,238.093 277.199,237.962 277.199 C 237.831 277.200,237.201 277.650,236.562 278.200 C 235.923 278.749,235.175 279.199,234.900 279.200 C 234.625 279.200,234.400 279.380,234.400 279.600 C 234.400 279.820,234.130 280.000,233.800 280.000 C 233.470 280.000,233.200 280.180,233.200 280.400 C 233.200 280.620,232.840 280.800,232.400 280.800 C 231.960 280.800,231.600 280.980,231.600 281.200 C 231.600 281.420,231.364 281.600,231.075 281.600 C 230.787 281.600,230.193 281.915,229.755 282.300 C 229.317 282.685,228.608 283.196,228.180 283.436 C 227.751 283.676,226.500 284.367,225.400 284.973 C 224.300 285.578,223.229 286.237,223.020 286.437 C 222.811 286.637,222.316 286.800,221.920 286.800 C 221.524 286.800,221.200 286.980,221.200 287.200 C 221.200 287.420,220.840 287.600,220.400 287.600 C 219.960 287.600,219.600 287.780,219.600 288.000 C 219.600 288.220,219.419 288.400,219.198 288.400 C 218.977 288.400,217.863 288.850,216.723 289.400 C 215.583 289.950,214.414 290.400,214.125 290.400 C 213.836 290.400,213.600 290.580,213.600 290.800 C 213.600 291.020,213.238 291.200,212.795 291.200 C 212.352 291.200,211.677 291.359,211.295 291.553 C 210.913 291.748,210.060 292.129,209.400 292.400 C 208.740 292.671,207.887 293.052,207.505 293.247 C 207.123 293.441,206.484 293.600,206.085 293.600 C 205.686 293.600,205.189 293.755,204.980 293.944 C 204.771 294.133,203.610 294.605,202.400 294.992 C 201.190 295.380,199.887 295.855,199.505 296.048 C 199.123 296.242,198.369 296.400,197.829 296.400 C 197.289 296.400,196.736 296.580,196.600 296.800 C 196.464 297.020,195.744 297.200,195.000 297.200 C 194.256 297.200,193.536 297.380,193.400 297.600 C 193.264 297.820,192.544 298.000,191.800 298.000 C 191.056 298.000,190.336 298.180,190.200 298.400 C 190.064 298.620,189.063 298.800,187.976 298.800 C 186.889 298.800,186.000 298.980,186.000 299.200 C 186.000 299.420,185.025 299.600,183.833 299.600 C 182.642 299.600,181.607 299.778,181.533 299.996 C 181.460 300.214,180.230 300.498,178.800 300.628 C 177.370 300.757,175.840 301.024,175.400 301.220 C 173.561 302.039,143.280 302.765,141.800 302.025 C 141.360 301.805,139.560 301.546,137.800 301.450 C 133.636 301.221,128.705 300.465,128.222 299.982 C 128.012 299.772,126.987 299.600,125.944 299.600 C 124.901 299.600,123.936 299.420,123.800 299.200 C 123.664 298.980,122.854 298.800,122.000 298.800 C 121.146 298.800,120.336 298.620,120.200 298.400 C 120.064 298.180,119.243 298.000,118.376 298.000 C 117.509 298.000,116.800 297.820,116.800 297.600 C 116.800 297.380,116.181 297.200,115.424 297.200 C 114.667 297.200,113.936 297.020,113.800 296.800 C 113.664 296.580,113.111 296.400,112.571 296.400 C 112.031 296.400,111.277 296.238,110.895 296.040 C 110.513 295.842,109.165 295.355,107.900 294.957 C 106.635 294.560,105.600 294.092,105.600 293.917 C 105.600 293.743,105.148 293.600,104.595 293.600 C 104.042 293.600,103.232 293.420,102.795 293.200 C 102.358 292.980,101.642 292.620,101.205 292.400 C 100.768 292.180,100.048 292.000,99.605 292.000 C 99.162 292.000,98.800 291.820,98.800 291.600 C 98.800 291.380,98.470 291.200,98.066 291.200 C 97.662 291.200,96.038 290.570,94.456 289.800 C 92.873 289.030,91.404 288.400,91.189 288.400 C 90.975 288.400,90.800 288.220,90.800 288.000 C 90.800 287.780,90.440 287.600,90.000 287.600 C 89.560 287.600,89.200 287.420,89.200 287.200 C 89.200 286.980,88.840 286.800,88.400 286.800 C 87.960 286.800,87.600 286.620,87.600 286.400 C 87.600 286.180,87.340 286.000,87.021 286.000 C 86.351 286.000,81.465 283.225,81.267 282.731 C 81.193 282.549,80.788 282.400,80.367 282.400 C 79.945 282.400,79.600 282.220,79.600 282.000 C 79.600 281.780,79.364 281.600,79.075 281.600 C 78.787 281.600,78.164 281.240,77.692 280.800 C 77.220 280.360,76.556 280.000,76.217 280.000 C 75.798 280.000,75.600 279.614,75.600 278.800 C 75.600 277.613,76.458 277.123,77.000 278.000 C 77.155 278.251,81.330 278.400,88.200 278.400 C 95.070 278.400,99.245 278.251,99.400 278.000 C 99.536 277.780,100.897 277.600,102.424 277.600 C 104.008 277.600,105.200 277.428,105.200 277.200 C 105.200 276.980,106.154 276.800,107.320 276.800 C 108.486 276.800,109.611 276.630,109.820 276.423 C 110.217 276.029,112.869 275.274,115.104 274.919 C 115.821 274.805,116.506 274.551,116.627 274.356 C 116.748 274.160,117.366 274.000,118.000 274.000 C 118.634 274.000,119.264 273.820,119.400 273.600 C 119.536 273.380,120.177 273.200,120.824 273.200 C 121.471 273.200,122.000 273.020,122.000 272.800 C 122.000 272.580,122.362 272.400,122.805 272.400 C 123.248 272.400,123.923 272.240,124.305 272.045 C 124.687 271.850,126.080 271.204,127.400 270.609 C 128.720 270.015,130.113 269.365,130.495 269.164 C 130.877 268.964,131.462 268.800,131.795 268.800 C 132.128 268.800,132.400 268.620,132.400 268.400 C 132.400 268.180,132.760 268.000,133.200 268.000 C 133.640 268.000,134.000 267.820,134.000 267.600 C 134.000 267.380,134.360 267.200,134.800 267.200 C 135.240 267.200,135.600 267.020,135.600 266.800 C 135.600 266.580,135.960 266.400,136.400 266.400 C 136.840 266.400,137.200 266.220,137.200 266.000 C 137.200 265.780,137.382 265.600,137.604 265.600 C 137.826 265.600,139.542 264.610,141.418 263.400 C 143.293 262.190,144.968 261.200,145.139 261.200 C 145.309 261.200,145.798 260.879,146.225 260.486 C 146.651 260.093,147.445 259.463,147.989 259.086 L 148.978 258.400 147.913 258.400 C 147.327 258.400,146.736 258.220,146.600 258.000 C 146.464 257.780,145.204 257.600,143.800 257.600 C 142.396 257.600,141.136 257.420,141.000 257.200 C 140.864 256.980,140.234 256.800,139.600 256.800 C 138.966 256.800,138.336 256.620,138.200 256.400 C 138.064 256.180,137.434 256.000,136.800 256.000 C 136.166 256.000,135.536 255.820,135.400 255.600 C 135.264 255.380,134.798 255.200,134.364 255.200 C 133.930 255.200,133.471 254.930,133.345 254.600 C 133.218 254.270,132.709 254.000,132.212 254.000 C 130.733 254.000,123.179 249.854,122.000 248.395 C 121.890 248.259,120.990 247.591,120.000 246.911 C 114.185 242.916,103.600 228.064,103.600 223.899 C 103.600 223.603,103.400 223.160,103.155 222.915 C 102.238 221.998,103.281 221.600,106.600 221.600 C 108.444 221.600,110.064 221.780,110.200 222.000 C 110.336 222.220,111.866 222.400,113.600 222.400 C 115.334 222.400,116.864 222.220,117.000 222.000 C 117.136 221.780,118.497 221.600,120.024 221.600 C 121.608 221.600,122.800 221.428,122.800 221.200 C 122.800 220.980,122.485 220.799,122.100 220.798 C 121.715 220.796,120.884 220.526,120.254 220.198 C 119.624 219.869,118.769 219.600,118.354 219.600 C 117.939 219.600,117.600 219.420,117.600 219.200 C 117.600 218.980,117.265 218.800,116.856 218.800 C 116.054 218.800,111.087 216.395,110.867 215.900 C 110.793 215.735,110.569 215.600,110.368 215.600 C 109.933 215.600,105.859 212.745,105.667 212.305 C 105.593 212.137,105.364 212.000,105.156 212.000 C 104.466 212.000,98.526 206.325,97.026 204.232 C 96.601 203.638,95.836 202.668,95.327 202.076 C 94.818 201.484,94.401 200.857,94.400 200.683 C 94.400 200.508,93.950 199.880,93.400 199.287 C 92.850 198.693,92.400 197.981,92.400 197.704 C 92.400 197.427,92.220 197.200,92.000 197.200 C 91.780 197.200,91.600 196.840,91.600 196.400 C 91.600 195.960,91.464 195.600,91.298 195.600 C 91.131 195.600,90.760 195.015,90.471 194.300 C 90.183 193.585,89.779 192.687,89.574 192.305 C 89.368 191.923,89.200 191.338,89.200 191.005 C 89.200 190.672,89.020 190.400,88.800 190.400 C 88.580 190.400,88.400 189.875,88.400 189.233 C 88.400 188.592,88.262 188.007,88.094 187.933 C 87.662 187.745,86.400 183.539,86.400 182.288 C 86.400 181.716,86.220 181.136,86.000 181.000 C 85.780 180.864,85.600 179.233,85.600 177.376 C 85.600 175.275,85.441 174.000,85.178 174.000 C 84.924 174.000,84.805 173.243,84.878 172.100 C 84.999 170.218,85.014 170.199,86.500 170.076 C 87.368 170.004,88.000 170.130,88.000 170.376 C 88.000 170.609,88.360 170.800,88.800 170.800 C 89.240 170.800,89.600 170.980,89.600 171.200 C 89.600 171.420,89.872 171.600,90.205 171.600 C 90.538 171.600,91.123 171.762,91.505 171.959 C 91.887 172.156,93.010 172.625,94.000 173.000 C 94.990 173.375,96.113 173.844,96.495 174.041 C 96.877 174.238,97.631 174.400,98.171 174.400 C 98.711 174.400,99.264 174.580,99.400 174.800 C 99.536 175.020,100.616 175.200,101.800 175.200 C 102.984 175.200,104.064 175.380,104.200 175.600 C 104.336 175.820,104.842 175.998,105.324 175.996 C 106.050 175.993,105.859 175.703,104.200 174.296 C 100.241 170.938,95.915 166.184,94.929 164.108 C 94.588 163.389,94.190 162.800,94.045 162.800 C 93.900 162.800,93.428 162.125,92.995 161.300 C 92.562 160.475,92.114 159.710,91.998 159.600 C 91.883 159.490,91.367 158.500,90.851 157.400 C 90.335 156.300,89.752 155.087,89.556 154.705 C 89.360 154.323,89.200 153.648,89.200 153.205 C 89.200 152.762,89.020 152.400,88.800 152.400 C 88.580 152.400,88.400 151.860,88.400 151.200 C 88.400 150.540,88.236 150.000,88.035 150.000 C 87.834 150.000,87.544 149.235,87.390 148.300 C 87.236 147.365,86.969 146.420,86.798 146.200 C 84.897 143.763,85.724 124.053,87.939 119.000 C 88.131 118.560,88.506 117.480,88.771 116.600 C 89.788 113.224,91.965 108.825,92.909 108.239 C 93.647 107.782,95.831 109.739,98.452 113.208 C 99.882 115.099,106.671 121.895,109.499 124.265 C 110.765 125.325,112.160 126.557,112.600 127.003 C 113.040 127.448,114.030 128.251,114.800 128.787 C 115.570 129.323,116.491 130.086,116.847 130.481 C 117.203 130.876,117.606 131.200,117.744 131.200 C 117.881 131.200,118.400 131.549,118.897 131.976 C 119.394 132.403,120.340 133.213,121.000 133.776 C 121.660 134.339,122.425 134.799,122.700 134.800 C 122.975 134.800,123.200 134.959,123.200 135.154 C 123.200 135.349,123.822 135.804,124.581 136.164 C 125.341 136.525,126.196 137.041,126.481 137.311 C 127.333 138.117,130.352 140.000,130.791 140.000 C 131.016 140.000,131.201 140.135,131.203 140.300 C 131.205 140.465,131.610 140.798,132.103 141.039 C 134.958 142.438,138.619 144.538,138.733 144.844 C 138.807 145.040,139.212 145.200,139.633 145.200 C 140.055 145.200,140.400 145.380,140.400 145.600 C 140.400 145.820,140.760 146.000,141.200 146.000 C 141.640 146.000,142.000 146.180,142.000 146.400 C 142.000 146.620,142.349 146.800,142.776 146.800 C 143.203 146.800,143.664 146.980,143.800 147.200 C 143.936 147.420,144.397 147.600,144.824 147.600 C 145.251 147.600,145.600 147.780,145.600 148.000 C 145.600 148.220,145.836 148.400,146.125 148.400 C 146.414 148.400,147.583 148.850,148.723 149.400 C 149.863 149.950,150.977 150.400,151.198 150.400 C 151.419 150.400,151.600 150.580,151.600 150.800 C 151.600 151.020,152.050 151.200,152.600 151.200 C 153.150 151.200,153.600 151.380,153.600 151.600 C 153.600 151.820,154.039 152.000,154.576 152.000 C 155.113 152.000,155.664 152.180,155.800 152.400 C 155.936 152.620,156.399 152.800,156.829 152.800 C 157.259 152.800,157.923 152.962,158.305 153.159 C 158.687 153.356,160.350 153.923,162.000 154.418 C 163.650 154.914,165.771 155.562,166.714 155.860 C 167.657 156.157,168.692 156.400,169.014 156.400 C 169.336 156.400,169.600 156.580,169.600 156.800 C 169.600 157.020,170.309 157.200,171.176 157.200 C 172.043 157.200,172.864 157.380,173.000 157.600 C 173.136 157.820,173.946 158.000,174.800 158.000 C 175.654 158.000,176.464 158.180,176.600 158.400 C 176.736 158.620,177.726 158.800,178.800 158.800 C 179.874 158.800,180.864 158.980,181.000 159.200 C 181.136 159.420,182.396 159.600,183.800 159.600 C 185.204 159.600,186.464 159.780,186.600 160.000 C 186.736 160.221,188.530 160.400,190.600 160.400 C 192.670 160.400,194.464 160.579,194.600 160.800 C 195.171 161.724,197.600 161.257,197.600 160.224 C 197.600 159.687,197.420 159.136,197.200 159.000 C 196.954 158.848,196.800 155.537,196.800 150.400 C 196.800 145.263,196.954 141.952,197.200 141.800 C 197.420 141.664,197.600 140.663,197.600 139.576 C 197.600 138.489,197.780 137.600,198.000 137.600 C 198.220 137.600,198.400 136.981,198.400 136.224 C 198.400 135.467,198.580 134.736,198.800 134.600 C 199.020 134.464,199.200 134.001,199.200 133.571 C 199.200 133.141,199.350 132.477,199.534 132.095 C 199.718 131.713,200.528 130.039,201.334 128.376 C 202.140 126.713,202.800 125.221,202.800 125.059 C 202.800 124.898,203.160 124.380,203.600 123.908 C 204.040 123.436,204.400 122.813,204.400 122.525 C 204.400 122.236,204.580 122.000,204.800 122.000 C 205.020 122.000,205.200 121.730,205.200 121.400 C 205.200 121.070,205.380 120.800,205.600 120.800 C 205.820 120.800,206.000 120.565,206.000 120.278 C 206.000 119.992,206.630 119.146,207.400 118.400 C 208.170 117.654,208.800 116.877,208.800 116.673 C 208.800 115.894,217.096 108.348,218.259 108.071 C 218.556 108.000,218.800 107.775,218.800 107.571 C 218.800 107.367,219.070 107.200,219.400 107.200 C 219.730 107.200,220.000 107.041,220.000 106.847 C 220.000 106.652,220.315 106.390,220.700 106.264 C 221.085 106.137,222.120 105.578,223.000 105.021 C 223.880 104.464,225.050 103.816,225.600 103.580 C 226.150 103.344,227.123 102.892,227.761 102.575 C 228.400 102.259,229.255 102.000,229.661 102.000 C 230.068 102.000,230.400 101.820,230.400 101.600 C 230.400 101.380,230.929 101.200,231.576 101.200 C 232.223 101.200,232.864 101.020,233.000 100.800 C 233.136 100.580,233.766 100.400,234.400 100.400 C 235.034 100.400,235.664 100.220,235.800 100.000 C 235.936 99.780,236.991 99.600,238.144 99.600 C 239.297 99.600,240.411 99.432,240.620 99.227 C 241.512 98.350,255.235 98.275,256.103 99.143 " stroke="none" fill="#1ca4f4" fill-rule="evenodd"></path><path id="path2" d="M246.711 99.093 C 247.651 99.178,249.091 99.177,249.911 99.091 C 250.730 99.005,249.960 98.936,248.200 98.937 C 246.440 98.939,245.770 99.009,246.711 99.093 M242.900 99.476 C 243.285 99.576,243.915 99.576,244.300 99.476 C 244.685 99.375,244.370 99.293,243.600 99.293 C 242.830 99.293,242.515 99.375,242.900 99.476 M252.100 99.476 C 252.485 99.576,253.115 99.576,253.500 99.476 C 253.885 99.375,253.570 99.293,252.800 99.293 C 252.030 99.293,251.715 99.375,252.100 99.476 M317.278 103.471 C 317.702 103.583,317.875 103.903,317.740 104.325 C 317.562 104.883,317.596 104.899,317.936 104.419 C 318.449 103.694,318.163 103.186,317.276 103.246 C 316.643 103.290,316.643 103.304,317.278 103.471 M221.000 106.800 C 220.340 107.237,219.980 107.592,220.200 107.588 C 220.601 107.582,222.776 106.023,222.400 106.012 C 222.290 106.008,221.660 106.363,221.000 106.800 M92.768 109.100 C 92.318 109.695,92.322 109.725,92.798 109.301 C 93.255 108.894,93.584 109.005,94.579 109.901 L 95.800 111.000 94.625 109.700 C 93.243 108.170,93.427 108.230,92.768 109.100 M95.600 111.325 C 95.600 111.394,96.185 111.979,96.900 112.625 L 98.200 113.800 97.025 112.500 C 95.930 111.288,95.600 111.016,95.600 111.325 M287.000 114.800 C 286.496 115.017,286.422 115.144,286.800 115.144 C 287.130 115.144,287.760 114.989,288.200 114.800 C 288.704 114.583,288.778 114.456,288.400 114.456 C 288.070 114.456,287.440 114.611,287.000 114.800 M100.800 117.000 C 101.546 117.770,102.247 118.400,102.357 118.400 C 102.467 118.400,101.946 117.770,101.200 117.000 C 100.454 116.230,99.753 115.600,99.643 115.600 C 99.533 115.600,100.054 116.230,100.800 117.000 M209.358 116.900 C 208.131 118.229,206.697 120.122,207.463 119.400 C 208.317 118.595,210.888 115.600,210.725 115.600 C 210.633 115.600,210.017 116.185,209.358 116.900 M310.400 118.000 C 309.930 118.660,309.636 119.200,309.746 119.200 C 309.856 119.200,310.330 118.660,310.800 118.000 C 311.270 117.340,311.564 116.800,311.454 116.800 C 311.344 116.800,310.870 117.340,310.400 118.000 M104.800 121.000 C 105.546 121.770,106.247 122.400,106.357 122.400 C 106.467 122.400,105.946 121.770,105.200 121.000 C 104.454 120.230,103.753 119.600,103.643 119.600 C 103.533 119.600,104.054 120.230,104.800 121.000 M305.591 123.500 L 302.200 127.000 305.700 123.609 C 307.625 121.744,309.200 120.169,309.200 120.109 C 309.200 119.818,308.741 120.249,305.591 123.500 M87.049 123.815 C 86.912 124.173,86.815 124.766,86.834 125.133 C 86.853 125.500,87.027 125.269,87.221 124.620 C 87.598 123.358,87.465 122.733,87.049 123.815 M86.086 134.200 C 86.083 136.840,86.206 139.450,86.360 140.000 C 86.628 140.959,86.497 131.234,86.225 130.000 C 86.152 129.670,86.090 131.560,86.086 134.200 M297.600 130.469 C 297.600 130.651,298.140 130.800,298.800 130.800 C 299.460 130.800,300.000 130.730,300.000 130.645 C 300.000 130.560,299.460 130.412,298.800 130.315 C 298.140 130.218,297.600 130.287,297.600 130.469 M318.001 132.598 C 317.486 133.148,317.139 133.664,317.232 133.746 C 317.324 133.828,317.819 133.378,318.330 132.747 C 319.476 131.335,319.274 131.244,318.001 132.598 M311.993 139.100 L 307.400 143.800 312.100 139.207 C 316.466 134.940,316.982 134.400,316.693 134.400 C 316.635 134.400,314.520 136.515,311.993 139.100 M121.600 134.946 C 121.600 135.056,122.140 135.530,122.800 136.000 C 123.460 136.470,124.000 136.764,124.000 136.654 C 124.000 136.544,123.460 136.070,122.800 135.600 C 122.140 135.130,121.600 134.836,121.600 134.946 M198.229 138.629 C 198.081 139.215,198.038 139.772,198.132 139.866 C 198.227 139.960,198.424 139.558,198.571 138.971 C 198.719 138.385,198.762 137.828,198.668 137.734 C 198.573 137.640,198.376 138.042,198.229 138.629 M196.951 150.400 C 196.951 152.930,197.016 153.965,197.096 152.700 C 197.175 151.435,197.175 149.365,197.096 148.100 C 197.016 146.835,196.951 147.870,196.951 150.400 M183.800 160.400 C 185.492 160.831,186.944 160.831,185.600 160.400 C 185.050 160.224,184.150 160.083,183.600 160.087 C 182.702 160.094,182.722 160.126,183.800 160.400 M192.100 161.476 C 192.485 161.576,193.115 161.576,193.500 161.476 C 193.885 161.375,193.570 161.293,192.800 161.293 C 192.030 161.293,191.715 161.375,192.100 161.476 M96.000 164.800 C 96.470 165.460,96.944 166.000,97.054 166.000 C 97.164 166.000,96.870 165.460,96.400 164.800 C 95.930 164.140,95.456 163.600,95.346 163.600 C 95.236 163.600,95.530 164.140,96.000 164.800 M299.328 166.800 C 299.328 168.230,299.401 168.815,299.489 168.100 C 299.578 167.385,299.578 166.215,299.489 165.500 C 299.401 164.785,299.328 165.370,299.328 166.800 M97.200 166.525 C 97.200 166.594,97.785 167.179,98.500 167.825 L 99.800 169.000 98.625 167.700 C 97.530 166.488,97.200 166.216,97.200 166.525 M85.758 170.966 C 85.638 171.278,85.605 172.043,85.684 172.666 C 85.802 173.591,85.864 173.487,86.025 172.100 C 86.227 170.351,86.138 169.975,85.758 170.966 M298.501 174.600 C 298.505 175.480,298.587 175.793,298.683 175.295 C 298.779 174.798,298.775 174.078,298.675 173.695 C 298.575 173.313,298.496 173.720,298.501 174.600 M86.006 178.433 C 86.009 178.965,86.189 179.670,86.406 180.000 C 86.682 180.422,86.723 180.185,86.542 179.200 C 86.225 177.475,85.998 177.149,86.006 178.433 M101.238 208.100 C 101.332 208.155,102.127 208.830,103.004 209.600 L 104.600 211.000 103.222 209.500 C 102.463 208.675,101.668 208.000,101.455 208.000 C 101.241 208.000,101.144 208.045,101.238 208.100 M106.800 212.562 C 106.800 212.672,107.610 213.319,108.600 214.000 C 109.590 214.681,110.400 215.148,110.400 215.038 C 110.400 214.928,109.590 214.281,108.600 213.600 C 107.610 212.919,106.800 212.452,106.800 212.562 M123.949 220.900 C 124.438 221.523,124.394 221.605,123.549 221.646 C 122.804 221.683,122.760 221.734,123.342 221.884 C 124.453 222.170,124.965 221.429,124.117 220.763 C 123.463 220.250,123.449 220.262,123.949 220.900 M108.100 222.676 C 108.485 222.776,109.115 222.776,109.500 222.676 C 109.885 222.575,109.570 222.493,108.800 222.493 C 108.030 222.493,107.715 222.575,108.100 222.676 M116.200 242.800 C 117.506 244.120,118.665 245.200,118.775 245.200 C 118.885 245.200,117.906 244.120,116.600 242.800 C 115.294 241.480,114.135 240.400,114.025 240.400 C 113.915 240.400,114.894 241.480,116.200 242.800 M270.800 243.600 C 270.330 244.260,270.036 244.800,270.146 244.800 C 270.256 244.800,270.730 244.260,271.200 243.600 C 271.670 242.940,271.964 242.400,271.854 242.400 C 271.744 242.400,271.270 242.940,270.800 243.600 M147.997 257.484 C 149.522 257.638,150.184 258.444,149.190 258.937 C 148.965 259.049,149.010 259.094,149.290 259.037 C 150.724 258.746,149.765 257.399,148.097 257.361 L 146.394 257.322 147.997 257.484 M250.175 266.500 L 249.000 267.800 250.300 266.625 C 251.015 265.979,251.600 265.394,251.600 265.325 C 251.600 265.016,251.270 265.288,250.175 266.500 M84.920 279.098 C 86.855 279.172,89.915 279.171,91.720 279.097 C 93.524 279.023,91.940 278.963,88.200 278.964 C 84.460 278.964,82.984 279.025,84.920 279.098 M170.500 301.076 C 170.885 301.176,171.515 301.176,171.900 301.076 C 172.285 300.975,171.970 300.893,171.200 300.893 C 170.430 300.893,170.115 300.975,170.500 301.076 M144.200 301.665 C 146.867 302.018,162.987 302.028,164.953 301.677 C 165.807 301.525,161.037 301.400,154.353 301.400 C 147.669 301.400,143.100 301.519,144.200 301.665 " stroke="none" fill="#7ac8f7" fill-rule="evenodd"></path><path id="path3" d="M242.800 99.565 C 241.590 99.694,244.110 99.801,248.400 99.803 C 253.100 99.805,255.167 99.704,253.600 99.550 C 250.454 99.240,245.786 99.246,242.800 99.565 M237.200 100.400 L 236.200 100.720 237.200 100.732 C 237.750 100.738,238.560 100.589,239.000 100.400 L 239.800 100.056 239.000 100.068 C 238.560 100.074,237.750 100.224,237.200 100.400 M257.600 100.400 C 257.930 100.613,258.650 100.773,259.200 100.754 L 260.200 100.720 259.200 100.400 C 257.658 99.906,256.836 99.906,257.600 100.400 M234.000 101.200 C 233.467 101.545,233.467 101.588,234.000 101.588 C 234.330 101.588,234.870 101.413,235.200 101.200 C 235.733 100.855,235.733 100.812,235.200 100.812 C 234.870 100.812,234.330 100.987,234.000 101.200 M261.200 101.200 C 261.530 101.413,262.160 101.578,262.600 101.566 L 263.400 101.544 262.600 101.200 C 261.404 100.686,260.405 100.686,261.200 101.200 M263.633 101.760 C 263.725 101.848,265.330 102.503,267.200 103.214 C 269.070 103.926,270.829 104.689,271.110 104.911 C 271.390 105.133,271.711 105.222,271.824 105.109 C 272.055 104.879,270.590 104.153,266.831 102.636 C 264.502 101.697,263.195 101.339,263.633 101.760 M226.257 104.067 C 225.408 104.496,224.792 104.925,224.888 105.021 C 224.983 105.117,225.948 104.755,227.031 104.218 C 228.114 103.681,228.730 103.252,228.400 103.265 C 228.070 103.277,227.106 103.638,226.257 104.067 M315.400 104.400 C 314.740 104.837,314.380 105.190,314.600 105.185 C 314.820 105.179,315.349 104.910,315.776 104.587 C 316.788 103.823,317.109 103.847,317.287 104.700 C 317.405 105.269,317.478 105.232,317.679 104.500 C 317.996 103.341,317.061 103.300,315.400 104.400 M273.200 105.967 C 274.163 106.752,274.800 107.008,274.800 106.610 C 274.800 106.506,274.215 106.135,273.500 105.786 L 272.200 105.152 273.200 105.967 M307.800 108.206 C 306.260 108.943,305.193 109.558,305.429 109.573 C 305.953 109.606,310.800 107.287,310.800 107.003 C 310.800 106.749,311.084 106.635,307.800 108.206 M218.200 109.055 L 216.600 110.480 218.500 109.221 C 219.545 108.528,220.400 107.880,220.400 107.781 C 220.400 107.323,219.672 107.744,218.200 109.055 M276.400 107.762 C 276.400 107.872,277.210 108.519,278.200 109.200 C 279.190 109.881,280.000 110.348,280.000 110.238 C 280.000 110.128,279.190 109.481,278.200 108.800 C 277.210 108.119,276.400 107.652,276.400 107.762 M315.599 108.602 C 315.366 109.214,315.081 109.869,314.964 110.058 C 314.848 110.246,314.849 110.400,314.966 110.400 C 315.315 110.400,316.478 107.944,316.241 107.707 C 316.121 107.587,315.832 107.990,315.599 108.602 M92.205 110.392 C 91.652 111.268,91.204 112.213,91.210 112.492 C 91.215 112.771,91.702 112.132,92.293 111.072 L 93.366 109.143 95.720 111.672 L 98.074 114.200 95.788 111.500 C 93.089 108.311,93.448 108.423,92.205 110.392 M282.616 112.900 C 283.859 114.055,285.205 115.157,285.609 115.348 C 286.349 115.700,294.344 113.921,295.600 113.125 C 296.305 112.678,295.974 112.749,290.144 114.280 L 286.088 115.345 283.500 113.073 C 280.245 110.215,279.588 110.087,282.616 112.900 M312.087 115.004 C 311.176 116.432,310.508 117.600,310.601 117.600 C 310.890 117.600,314.081 112.748,313.907 112.573 C 313.816 112.483,312.997 113.576,312.087 115.004 M210.556 115.900 C 206.646 120.478,203.209 125.336,204.402 124.599 C 204.624 124.461,205.083 123.812,205.423 123.156 C 205.762 122.500,206.290 121.656,206.595 121.281 C 206.901 120.907,207.874 119.700,208.758 118.600 C 209.642 117.500,210.930 115.925,211.621 115.100 C 212.312 114.275,212.797 113.600,212.699 113.600 C 212.600 113.600,211.636 114.635,210.556 115.900 M100.848 117.500 C 101.555 118.406,103.982 120.781,105.227 121.785 C 105.762 122.217,104.945 121.272,103.411 119.685 C 100.721 116.903,99.709 116.040,100.848 117.500 M305.824 122.725 L 301.448 127.400 305.153 123.800 C 308.268 120.773,310.817 117.928,310.327 118.025 C 310.257 118.039,308.231 120.154,305.824 122.725 M87.659 122.400 C 87.620 122.950,87.489 123.850,87.367 124.400 C 87.176 125.262,87.208 125.302,87.597 124.691 C 87.846 124.302,87.977 123.402,87.889 122.691 C 87.764 121.687,87.713 121.622,87.659 122.400 M106.400 122.739 C 106.400 123.441,117.413 132.678,121.200 135.153 C 123.045 136.359,122.258 135.690,115.400 130.223 C 112.540 127.943,109.345 125.253,108.300 124.245 C 107.255 123.238,106.400 122.560,106.400 122.739 M323.684 123.787 C 324.043 124.184,320.831 128.904,318.200 131.846 C 317.980 132.092,317.373 132.813,316.850 133.447 C 316.328 134.081,314.798 135.770,313.450 137.200 L 311.000 139.800 313.723 137.200 C 318.553 132.589,324.842 124.304,323.917 123.770 C 323.633 123.606,323.528 123.613,323.684 123.787 M319.200 125.432 C 317.330 126.167,316.084 126.776,316.431 126.784 C 317.176 126.803,322.030 124.893,322.580 124.365 C 323.062 123.902,323.209 123.856,319.200 125.432 M86.583 129.495 C 86.226 134.251,86.637 141.824,87.414 144.800 C 88.043 147.212,88.028 146.951,87.161 140.400 C 86.894 138.383,86.806 134.682,86.944 131.300 C 87.211 124.756,87.012 123.763,86.583 129.495 M314.200 127.200 C 313.429 127.531,313.431 127.545,314.276 127.572 C 314.758 127.587,315.264 127.420,315.400 127.200 C 315.692 126.727,315.301 126.727,314.200 127.200 M299.800 128.099 C 299.140 128.579,298.510 129.081,298.400 129.215 C 298.290 129.349,297.885 129.575,297.500 129.717 C 296.134 130.221,296.686 131.205,298.300 131.140 C 299.507 131.092,299.585 131.048,298.700 130.913 C 297.743 130.768,297.083 130.010,297.900 129.994 C 298.232 129.987,301.520 127.231,301.200 127.228 C 301.090 127.226,300.460 127.618,299.800 128.099 M311.400 128.000 L 310.600 128.344 311.400 128.366 C 311.840 128.378,312.470 128.213,312.800 128.000 C 313.595 127.486,312.596 127.486,311.400 128.000 M201.251 130.180 C 200.783 131.176,200.404 132.218,200.409 132.496 C 200.414 132.773,200.700 132.370,201.045 131.600 C 201.390 130.830,201.849 129.867,202.064 129.461 C 202.279 129.055,202.376 128.643,202.279 128.546 C 202.182 128.449,201.719 129.184,201.251 130.180 M308.600 128.800 L 307.800 129.144 308.600 129.166 C 309.040 129.178,309.670 129.013,310.000 128.800 C 310.795 128.286,309.796 128.286,308.600 128.800 M305.200 129.600 L 304.200 129.920 305.200 129.954 C 305.750 129.973,306.470 129.813,306.800 129.600 C 307.564 129.106,306.742 129.106,305.200 129.600 M301.000 130.400 L 299.800 130.705 301.000 130.747 C 301.660 130.769,302.470 130.613,302.800 130.400 C 303.543 129.920,302.887 129.920,301.000 130.400 M199.073 136.153 C 198.923 136.545,198.811 137.166,198.825 137.533 C 198.842 137.975,198.981 137.874,199.237 137.234 C 199.449 136.703,199.561 136.082,199.485 135.854 C 199.409 135.627,199.224 135.761,199.073 136.153 M122.800 136.206 C 122.800 136.506,128.858 140.475,129.040 140.294 C 129.136 140.197,127.771 139.200,126.007 138.077 C 124.243 136.955,122.800 136.112,122.800 136.206 M198.229 139.829 C 198.081 140.415,198.051 140.984,198.161 141.094 C 198.271 141.204,198.481 140.815,198.629 140.229 C 198.776 139.642,198.806 139.073,198.696 138.963 C 198.586 138.853,198.376 139.242,198.229 139.829 M308.400 142.052 C 307.190 143.161,305.497 144.637,304.637 145.334 C 302.565 147.012,300.389 149.047,301.400 148.362 C 303.964 146.623,311.466 139.948,310.778 140.018 C 310.680 140.028,309.610 140.943,308.400 142.052 M131.556 141.885 C 132.888 142.881,136.471 144.862,136.638 144.695 C 136.780 144.553,131.719 141.492,131.000 141.285 C 130.780 141.221,131.030 141.491,131.556 141.885 M197.459 144.500 C 197.142 147.138,197.185 153.959,197.535 156.600 C 197.681 157.700,197.800 154.955,197.800 150.500 C 197.800 141.458,197.808 141.597,197.459 144.500 M138.000 145.567 C 138.963 146.352,139.600 146.608,139.600 146.210 C 139.600 146.106,139.015 145.735,138.300 145.386 L 137.000 144.752 138.000 145.567 M88.244 148.200 C 88.573 149.671,88.802 149.990,88.794 148.967 C 88.791 148.545,88.605 147.930,88.382 147.600 C 88.085 147.162,88.048 147.324,88.244 148.200 M146.000 149.472 C 147.650 150.252,149.405 151.080,149.899 151.312 C 150.394 151.544,150.895 151.638,151.012 151.521 C 151.130 151.404,150.635 151.072,149.913 150.783 C 149.191 150.495,147.470 149.751,146.090 149.130 C 142.498 147.513,142.427 147.783,146.000 149.472 M299.640 149.352 C 299.322 149.735,299.218 152.159,299.300 157.252 L 299.419 164.600 299.510 157.180 C 299.572 152.050,299.748 149.612,300.080 149.280 C 300.344 149.016,300.456 148.800,300.329 148.800 C 300.202 148.800,299.892 149.048,299.640 149.352 M157.633 154.149 C 157.990 154.467,162.685 155.999,163.227 155.974 C 163.542 155.959,162.868 155.642,161.729 155.270 C 160.591 154.897,159.526 154.459,159.363 154.296 C 159.200 154.133,158.707 154.000,158.267 154.000 C 157.827 154.000,157.542 154.067,157.633 154.149 M91.200 156.096 C 91.200 156.513,92.940 159.593,93.091 159.442 C 93.173 159.361,92.851 158.598,92.377 157.747 C 91.451 156.087,91.200 155.735,91.200 156.096 M164.400 156.382 C 164.730 156.605,165.345 156.791,165.767 156.794 C 166.790 156.802,166.471 156.573,165.000 156.244 C 164.124 156.048,163.962 156.085,164.400 156.382 M170.200 158.000 C 170.336 158.220,170.842 158.397,171.324 158.394 C 172.036 158.389,172.088 158.315,171.600 158.000 C 170.812 157.491,169.885 157.491,170.200 158.000 M173.400 158.800 C 173.840 158.989,174.560 159.144,175.000 159.144 L 175.800 159.144 175.000 158.800 C 174.560 158.611,173.840 158.456,173.400 158.456 L 172.600 158.456 173.400 158.800 M176.000 159.299 C 176.380 159.701,186.356 161.257,187.476 161.089 C 188.483 160.937,188.454 160.913,187.200 160.852 C 186.430 160.815,184.360 160.519,182.600 160.195 C 178.115 159.370,175.766 159.051,176.000 159.299 M198.124 160.559 L 198.312 161.718 193.456 161.506 C 190.785 161.390,189.050 161.436,189.600 161.608 C 190.150 161.780,192.445 161.938,194.700 161.960 C 199.028 162.002,199.574 161.710,198.363 160.000 C 198.033 159.535,197.980 159.661,198.124 160.559 M93.446 160.400 C 93.983 161.535,97.967 167.075,98.651 167.637 C 99.028 167.947,98.271 166.755,96.968 164.990 C 95.666 163.224,94.277 161.334,93.881 160.790 C 93.486 160.245,93.291 160.070,93.446 160.400 M298.592 169.738 C 298.439 171.169,298.393 172.578,298.490 172.870 C 298.587 173.161,298.790 172.068,298.942 170.441 C 299.093 168.814,299.139 167.405,299.043 167.310 C 298.948 167.215,298.745 168.308,298.592 169.738 M99.600 168.690 C 99.600 168.881,100.364 169.749,101.297 170.619 C 102.849 172.064,102.892 172.081,101.797 170.821 C 99.806 168.529,99.600 168.329,99.600 168.690 M86.230 170.703 C 85.797 171.137,86.049 176.998,86.613 179.600 C 86.923 181.030,87.098 181.480,87.001 180.600 C 86.562 176.617,86.309 171.200,86.562 171.200 C 86.715 171.200,87.388 171.483,88.057 171.829 C 88.727 172.176,89.345 172.388,89.432 172.301 C 89.519 172.214,88.886 171.767,88.025 171.308 C 87.165 170.849,86.357 170.576,86.230 170.703 M103.960 172.927 C 104.488 173.505,105.521 174.389,106.257 174.889 C 108.083 176.133,107.962 176.337,105.300 176.504 L 103.000 176.649 105.529 176.724 C 108.689 176.819,108.671 176.420,105.400 173.798 C 104.080 172.741,103.432 172.348,103.960 172.927 M96.800 175.200 C 97.130 175.413,97.760 175.578,98.200 175.566 L 99.000 175.544 98.200 175.200 C 97.004 174.686,96.005 174.686,96.800 175.200 M297.889 175.600 C 297.736 176.150,297.625 177.050,297.642 177.600 C 297.668 178.461,297.726 178.414,298.058 177.260 C 298.270 176.524,298.381 175.624,298.306 175.260 C 298.208 174.794,298.086 174.893,297.889 175.600 M100.200 176.000 C 100.640 176.189,101.450 176.338,102.000 176.332 L 103.000 176.320 102.000 176.000 C 101.450 175.824,100.640 175.674,100.200 175.668 L 99.400 175.656 100.200 176.000 M297.049 181.015 C 296.912 181.373,296.816 182.056,296.836 182.533 C 296.862 183.147,296.985 183.008,297.259 182.056 C 297.657 180.672,297.494 179.858,297.049 181.015 M87.246 182.800 C 87.265 183.130,87.424 183.850,87.600 184.400 L 87.920 185.400 87.954 184.400 C 87.973 183.850,87.813 183.130,87.600 182.800 C 87.255 182.267,87.216 182.267,87.246 182.800 M296.028 186.417 C 295.511 189.001,295.284 189.914,294.362 193.102 C 294.092 194.038,293.965 194.898,294.080 195.013 C 294.195 195.129,294.506 194.363,294.770 193.311 C 295.034 192.260,295.408 190.770,295.600 190.000 C 295.792 189.230,296.160 187.759,296.418 186.730 C 296.676 185.702,296.810 184.630,296.716 184.347 C 296.622 184.065,296.312 184.996,296.028 186.417 M88.028 185.876 C 88.118 186.915,88.744 187.796,88.772 186.924 C 88.787 186.442,88.620 185.936,88.400 185.800 C 88.180 185.664,88.013 185.698,88.028 185.876 M91.200 193.775 C 91.200 194.338,93.675 198.458,93.887 198.247 C 93.997 198.136,93.708 197.513,93.244 196.861 C 92.780 196.210,92.394 195.524,92.387 195.338 C 92.370 194.892,91.200 193.351,91.200 193.775 M293.467 196.267 C 293.320 196.413,293.211 196.908,293.225 197.367 C 293.249 198.133,293.282 198.123,293.634 197.242 C 294.026 196.263,293.944 195.789,293.467 196.267 M94.934 200.217 C 96.358 202.312,101.304 208.029,101.513 207.821 C 101.612 207.721,100.858 206.759,99.839 205.682 C 97.772 203.499,94.800 199.633,94.800 199.128 C 94.800 198.947,94.614 198.800,94.386 198.800 C 94.158 198.800,94.404 199.438,94.934 200.217 M291.200 203.264 C 291.200 203.927,288.446 211.227,287.566 212.895 C 287.365 213.277,287.207 213.817,287.216 214.095 C 287.243 214.938,288.214 212.836,289.996 208.078 C 290.928 205.591,291.580 203.446,291.445 203.312 C 291.310 203.177,291.200 203.155,291.200 203.264 M104.342 210.283 C 105.566 211.429,106.654 212.280,106.759 212.174 C 106.865 212.068,106.513 211.674,105.976 211.299 C 105.439 210.923,104.351 210.072,103.559 209.408 C 102.766 208.744,103.119 209.137,104.342 210.283 M109.773 214.356 C 110.054 214.810,114.032 216.901,114.233 216.700 C 114.316 216.617,113.490 216.111,112.398 215.575 C 111.306 215.039,110.410 214.465,110.406 214.300 C 110.403 214.135,110.209 214.000,109.976 214.000 C 109.743 214.000,109.652 214.160,109.773 214.356 M284.100 220.700 C 282.965 223.048,282.102 225.035,282.182 225.116 C 282.263 225.196,283.261 223.344,284.400 221.000 C 285.539 218.656,286.402 216.669,286.318 216.584 C 286.233 216.500,285.235 218.352,284.100 220.700 M120.600 219.600 C 121.701 220.073,122.092 220.073,121.800 219.600 C 121.664 219.380,121.158 219.213,120.676 219.228 C 119.831 219.255,119.829 219.269,120.600 219.600 M123.000 220.289 C 124.079 220.555,124.840 221.211,124.572 221.645 C 124.451 221.840,124.623 222.000,124.953 222.000 C 125.283 222.000,125.656 221.832,125.783 221.627 C 126.126 221.072,124.371 219.993,123.211 220.046 C 122.382 220.084,122.344 220.128,123.000 220.289 M104.014 222.665 C 104.030 223.506,105.164 225.664,105.186 224.895 C 105.194 224.617,104.982 224.040,104.715 223.613 C 104.028 222.512,104.440 222.314,106.447 222.776 C 109.015 223.368,118.552 223.248,121.600 222.585 L 124.200 222.020 121.800 222.310 C 118.519 222.706,107.787 222.676,105.700 222.265 C 104.193 221.968,104.002 222.013,104.014 222.665 M281.000 226.800 C 280.659 227.460,280.469 228.000,280.579 228.000 C 280.689 228.000,281.059 227.460,281.400 226.800 C 281.741 226.140,281.931 225.600,281.821 225.600 C 281.711 225.600,281.341 226.140,281.000 226.800 M279.176 230.061 C 278.692 231.018,277.939 232.305,277.504 232.923 C 277.069 233.541,276.789 234.122,276.881 234.215 C 276.974 234.307,277.814 233.107,278.748 231.548 C 279.682 229.988,280.358 228.625,280.251 228.518 C 280.144 228.410,279.660 229.105,279.176 230.061 M107.600 230.973 C 107.600 231.340,110.133 235.201,110.278 235.056 C 110.362 234.971,109.857 233.980,109.156 232.851 C 107.988 230.974,107.600 230.505,107.600 230.973 M112.157 237.900 C 114.004 240.245,119.200 245.579,119.200 245.129 C 119.200 244.992,118.058 243.778,116.663 242.431 C 115.268 241.084,113.423 238.999,112.563 237.799 C 111.703 236.599,110.853 235.613,110.673 235.609 C 110.494 235.604,111.162 236.635,112.157 237.900 M273.557 239.100 C 271.774 241.745,267.149 248.040,266.302 248.975 C 265.916 249.402,265.600 249.929,265.600 250.148 C 265.600 250.366,266.500 249.387,267.599 247.972 C 270.087 244.772,275.319 237.200,275.043 237.200 C 274.930 237.200,274.262 238.055,273.557 239.100 M119.610 245.481 C 119.627 246.023,124.440 249.419,127.700 251.189 C 132.017 253.533,131.587 252.951,127.100 250.377 C 125.065 249.209,123.310 248.152,123.200 248.027 C 122.584 247.328,119.602 245.213,119.610 245.481 M262.631 253.366 C 261.329 254.925,260.850 255.660,261.568 255.000 C 263.059 253.630,265.370 250.820,265.148 250.648 C 265.067 250.584,263.934 251.807,262.631 253.366 M136.000 254.868 C 137.892 255.658,144.602 257.179,146.000 257.135 C 147.050 257.102,147.150 257.049,146.400 256.923 C 145.850 256.830,144.050 256.470,142.400 256.123 C 140.750 255.775,138.903 255.405,138.295 255.300 C 137.687 255.194,137.092 254.949,136.971 254.754 C 136.851 254.559,136.358 254.411,135.876 254.425 C 135.046 254.449,135.053 254.473,136.000 254.868 M255.570 260.728 C 251.205 265.136,248.845 267.325,246.225 269.400 C 245.392 270.060,244.235 271.007,243.655 271.504 C 243.075 272.001,241.393 273.261,239.917 274.304 C 238.442 275.347,237.227 276.341,237.217 276.513 C 237.195 276.915,240.682 274.333,245.996 270.012 C 250.418 266.415,260.882 256.419,260.200 256.443 C 259.980 256.450,257.896 258.379,255.570 260.728 M149.800 258.166 C 149.800 258.893,149.923 259.029,150.300 258.717 C 150.575 258.489,150.800 258.054,150.800 257.751 C 150.800 257.448,150.575 257.200,150.300 257.200 C 150.025 257.200,149.800 257.635,149.800 258.166 M147.095 260.632 C 144.632 262.420,144.636 262.820,147.100 261.154 C 149.453 259.564,149.368 259.635,149.162 259.429 C 149.068 259.334,148.138 259.876,147.095 260.632 M141.703 264.104 C 140.330 265.004,139.272 265.806,139.353 265.887 C 139.512 266.046,144.800 262.812,144.800 262.555 C 144.800 262.191,144.054 262.564,141.703 264.104 M137.500 266.629 C 136.005 267.440,136.096 267.778,137.600 267.000 C 138.260 266.659,138.800 266.294,138.800 266.190 C 138.800 265.932,138.757 265.947,137.500 266.629 M132.800 269.040 C 129.949 270.485,129.970 270.919,132.825 269.547 C 134.751 268.622,136.414 267.563,135.789 267.661 C 135.575 267.694,134.230 268.315,132.800 269.040 M122.800 273.252 C 122.250 273.473,119.820 274.263,117.400 275.008 C 114.980 275.754,113.347 276.372,113.772 276.382 C 114.595 276.401,115.021 276.276,120.586 274.382 C 123.941 273.240,125.034 272.765,124.167 272.825 C 123.965 272.839,123.350 273.031,122.800 273.252 M110.800 276.800 L 109.800 277.120 110.800 277.154 C 111.350 277.173,112.070 277.013,112.400 276.800 C 113.164 276.306,112.342 276.306,110.800 276.800 M234.500 278.040 C 232.676 279.331,232.227 279.928,233.699 279.103 C 234.934 278.411,236.936 276.796,236.531 276.818 C 236.349 276.828,235.435 277.378,234.500 278.040 M106.600 277.600 L 105.400 277.905 106.600 277.925 C 107.260 277.935,108.160 277.789,108.600 277.600 L 109.400 277.256 108.600 277.275 C 108.160 277.286,107.260 277.432,106.600 277.600 M101.800 278.400 L 100.600 278.705 102.000 278.747 C 102.770 278.769,103.670 278.613,104.000 278.400 C 104.739 277.923,103.676 277.923,101.800 278.400 M76.805 279.100 C 76.812 279.501,79.624 281.309,79.866 281.068 C 79.970 280.963,79.503 280.552,78.828 280.153 C 78.152 279.754,77.600 279.286,77.600 279.114 C 77.600 278.941,77.420 278.800,77.200 278.800 C 76.980 278.800,76.802 278.935,76.805 279.100 M79.600 279.270 C 81.903 279.616,93.977 279.612,96.600 279.265 C 97.700 279.119,93.920 279.000,88.200 279.000 C 82.480 279.000,78.610 279.122,79.600 279.270 M229.887 281.031 C 228.629 281.818,227.600 282.549,227.600 282.656 C 227.600 282.915,230.336 281.364,231.600 280.389 C 233.178 279.172,232.383 279.470,229.887 281.031 M82.211 282.537 C 83.628 283.502,87.700 285.633,87.847 285.486 C 87.926 285.408,87.317 284.979,86.495 284.533 C 85.673 284.088,84.320 283.335,83.488 282.862 C 81.815 281.908,80.974 281.695,82.211 282.537 M224.510 284.112 C 223.360 284.794,222.483 285.416,222.561 285.494 C 222.683 285.616,226.689 283.409,227.167 282.958 C 227.722 282.432,226.296 283.052,224.510 284.112 M94.866 289.000 C 95.222 289.355,102.928 292.405,103.082 292.251 C 103.164 292.169,101.739 291.512,99.915 290.790 C 98.092 290.068,96.429 289.325,96.220 289.139 C 95.823 288.785,94.518 288.651,94.866 289.000 M214.180 289.138 C 213.840 289.440,211.516 290.404,208.245 291.600 C 207.609 291.832,207.174 292.107,207.278 292.211 C 207.459 292.392,215.122 289.411,215.534 289.000 C 215.882 288.652,214.577 288.785,214.180 289.138 M111.800 295.361 C 115.555 296.588,116.816 296.917,117.013 296.720 C 117.129 296.605,116.363 296.290,115.311 296.022 C 114.260 295.753,112.987 295.368,112.481 295.167 C 111.976 294.965,111.256 294.809,110.881 294.819 C 110.507 294.830,110.920 295.073,111.800 295.361 M195.600 295.812 C 193.950 296.323,192.947 296.754,193.372 296.770 C 193.796 296.787,194.696 296.621,195.372 296.403 C 196.047 296.184,197.410 295.743,198.400 295.422 C 199.390 295.101,199.840 294.848,199.400 294.861 C 198.960 294.874,197.250 295.302,195.600 295.812 M118.200 297.200 C 119.396 297.714,120.395 297.714,119.600 297.200 C 119.270 296.987,118.640 296.822,118.200 296.834 L 117.400 296.856 118.200 297.200 M190.600 297.200 C 190.096 297.417,190.022 297.544,190.400 297.544 C 190.730 297.544,191.360 297.389,191.800 297.200 C 192.304 296.983,192.378 296.856,192.000 296.856 C 191.670 296.856,191.040 297.011,190.600 297.200 M121.600 298.000 C 122.388 298.509,123.315 298.509,123.000 298.000 C 122.864 297.780,122.358 297.603,121.876 297.606 C 121.164 297.611,121.112 297.685,121.600 298.000 M186.800 298.000 C 186.013 298.509,187.416 298.509,188.600 298.000 C 189.333 297.685,189.316 297.654,188.400 297.634 C 187.850 297.622,187.130 297.787,186.800 298.000 M124.433 298.543 C 124.525 298.621,125.230 298.801,126.000 298.942 C 126.985 299.123,127.222 299.082,126.800 298.806 C 126.258 298.450,124.037 298.203,124.433 298.543 M182.800 298.821 C 182.370 299.114,182.654 299.154,183.800 298.962 C 185.784 298.630,186.104 298.398,184.567 298.406 C 183.925 298.409,183.130 298.596,182.800 298.821 M129.400 299.600 C 131.197 300.057,132.864 300.057,131.800 299.600 C 131.360 299.411,130.370 299.265,129.600 299.275 L 128.200 299.295 129.400 299.600 M178.200 299.620 C 177.661 299.865,178.054 299.905,179.400 299.741 C 180.500 299.607,181.475 299.431,181.567 299.349 C 181.917 299.036,178.961 299.274,178.200 299.620 M136.200 300.600 C 140.842 301.309,160.101 301.760,165.800 301.293 C 169.199 301.015,167.789 300.974,159.600 301.112 C 153.022 301.223,146.799 301.104,143.200 300.798 C 133.806 300.001,131.935 299.948,136.200 300.600 M171.400 300.422 C 170.664 300.622,171.438 300.663,173.400 300.526 C 175.160 300.403,176.675 300.235,176.767 300.151 C 177.079 299.868,172.605 300.093,171.400 300.422 " stroke="none" fill="#a9dafc" fill-rule="evenodd"></path><path id="path4" d="M243.300 99.076 C 243.685 99.176,244.315 99.176,244.700 99.076 C 245.085 98.975,244.770 98.893,244.000 98.893 C 243.230 98.893,242.915 98.975,243.300 99.076 M251.233 98.944 C 251.325 99.023,252.300 99.191,253.400 99.318 C 254.687 99.467,255.115 99.426,254.600 99.203 C 253.836 98.872,250.886 98.645,251.233 98.944 M283.600 113.000 C 284.346 113.770,285.047 114.400,285.157 114.400 C 285.267 114.400,284.746 113.770,284.000 113.000 C 283.254 112.230,282.553 111.600,282.443 111.600 C 282.333 111.600,282.854 112.230,283.600 113.000 M305.389 124.100 L 302.600 127.000 305.500 124.211 C 308.194 121.620,308.583 121.200,308.289 121.200 C 308.228 121.200,306.923 122.505,305.389 124.100 M204.214 123.435 C 203.841 124.004,203.605 124.538,203.689 124.622 C 203.773 124.707,204.158 124.241,204.544 123.588 C 205.406 122.128,205.148 122.009,204.214 123.435 M299.777 150.116 C 299.668 150.400,299.629 153.505,299.691 157.016 L 299.803 163.400 300.001 156.499 C 300.196 149.722,300.174 149.081,299.777 150.116 M299.254 170.000 C 299.219 170.550,299.096 171.450,298.983 172.000 L 298.777 173.000 299.207 172.015 C 299.443 171.474,299.565 170.574,299.478 170.015 L 299.320 169.000 299.254 170.000 M105.600 176.000 L 104.200 176.295 105.476 176.347 C 106.178 176.376,106.864 176.220,107.000 176.000 C 107.136 175.780,107.192 175.624,107.124 175.653 C 107.056 175.682,106.370 175.838,105.600 176.000 M103.867 221.867 C 103.720 222.013,103.603 222.328,103.606 222.567 C 103.610 222.855,103.711 222.846,103.906 222.540 C 104.068 222.288,104.650 221.997,105.200 221.895 L 106.200 221.709 105.167 221.654 C 104.598 221.625,104.013 221.720,103.867 221.867 M111.700 222.694 C 112.745 222.776,114.455 222.776,115.500 222.694 C 116.545 222.612,115.690 222.544,113.600 222.544 C 111.510 222.544,110.655 222.612,111.700 222.694 M115.800 242.800 C 116.883 243.900,117.860 244.800,117.970 244.800 C 118.080 244.800,117.283 243.900,116.200 242.800 C 115.117 241.700,114.140 240.800,114.030 240.800 C 113.920 240.800,114.717 241.700,115.800 242.800 M260.975 256.100 L 259.800 257.400 261.100 256.225 C 261.815 255.579,262.400 254.994,262.400 254.925 C 262.400 254.616,262.070 254.888,260.975 256.100 M144.500 257.476 C 144.885 257.576,145.515 257.576,145.900 257.476 C 146.285 257.375,145.970 257.293,145.200 257.293 C 144.430 257.293,144.115 257.375,144.500 257.476 M76.006 279.100 C 76.010 279.574,76.111 279.645,76.316 279.321 C 76.484 279.058,77.786 278.778,79.210 278.698 L 81.800 278.554 78.900 278.477 C 76.373 278.410,76.001 278.490,76.006 279.100 M95.700 278.687 C 96.305 278.778,97.295 278.778,97.900 278.687 C 98.505 278.595,98.010 278.520,96.800 278.520 C 95.590 278.520,95.095 278.595,95.700 278.687 M184.000 299.200 C 183.176 299.464,183.141 299.526,183.800 299.554 C 184.240 299.573,184.870 299.413,185.200 299.200 C 185.901 298.747,185.414 298.747,184.000 299.200 M135.000 300.800 C 135.440 300.989,136.160 301.138,136.600 301.132 C 137.243 301.123,137.204 301.057,136.400 300.800 C 135.032 300.362,133.981 300.362,135.000 300.800 M173.200 300.800 C 172.408 301.054,172.367 301.120,173.000 301.120 C 173.440 301.120,174.250 300.976,174.800 300.800 C 175.592 300.546,175.633 300.480,175.000 300.480 C 174.560 300.480,173.750 300.624,173.200 300.800 " stroke="none" fill="#54bcf4" fill-rule="evenodd"></path><path id="path5" d="M241.000 99.200 C 240.708 99.673,241.099 99.673,242.200 99.200 C 242.971 98.869,242.969 98.855,242.124 98.828 C 241.642 98.813,241.136 98.980,241.000 99.200 M211.578 113.900 L 210.200 115.400 211.700 114.022 C 213.096 112.738,213.384 112.400,213.078 112.400 C 213.012 112.400,212.337 113.075,211.578 113.900 M102.400 118.125 C 102.400 118.194,102.985 118.779,103.700 119.425 L 105.000 120.600 103.825 119.300 C 102.730 118.088,102.400 117.816,102.400 118.125 M298.400 130.000 C 297.915 130.314,297.972 130.389,298.700 130.394 C 299.195 130.397,299.600 130.220,299.600 130.000 C 299.600 129.499,299.176 129.499,298.400 130.000 M85.740 134.400 C 85.740 136.270,85.809 137.035,85.893 136.100 C 85.977 135.165,85.977 133.635,85.893 132.700 C 85.809 131.765,85.740 132.530,85.740 134.400 M300.090 156.267 C 300.040 159.824,299.884 163.064,299.741 163.467 C 299.548 164.013,299.602 164.090,299.951 163.770 C 300.284 163.465,300.385 161.372,300.300 156.570 L 300.179 149.800 300.090 156.267 M182.900 159.876 C 183.285 159.976,183.915 159.976,184.300 159.876 C 184.685 159.775,184.370 159.693,183.600 159.693 C 182.830 159.693,182.515 159.775,182.900 159.876 M187.900 160.682 C 188.395 160.778,189.205 160.778,189.700 160.682 C 190.195 160.587,189.790 160.509,188.800 160.509 C 187.810 160.509,187.405 160.587,187.900 160.682 M193.400 161.185 C 194.622 161.511,197.870 161.720,197.567 161.453 C 197.475 161.372,196.230 161.207,194.800 161.085 C 193.162 160.946,192.644 160.982,193.400 161.185 M100.800 171.000 C 101.546 171.770,102.247 172.400,102.357 172.400 C 102.467 172.400,101.946 171.770,101.200 171.000 C 100.454 170.230,99.753 169.600,99.643 169.600 C 99.533 169.600,100.054 170.230,100.800 171.000 M85.359 170.562 C 85.241 170.871,85.218 171.726,85.308 172.462 C 85.459 173.693,85.477 173.667,85.536 172.133 C 85.571 171.217,85.825 170.376,86.100 170.265 C 86.492 170.107,86.489 170.056,86.087 170.032 C 85.806 170.014,85.478 170.253,85.359 170.562 M85.724 176.200 C 85.726 177.520,85.801 178.012,85.890 177.293 C 85.979 176.574,85.977 175.494,85.886 174.893 C 85.795 174.292,85.722 174.880,85.724 176.200 M256.200 261.200 C 253.567 263.840,251.503 266.000,251.613 266.000 C 251.723 266.000,253.967 263.840,256.600 261.200 C 259.233 258.560,261.297 256.400,261.187 256.400 C 261.077 256.400,258.833 258.560,256.200 261.200 M142.000 257.182 C 142.330 257.405,142.945 257.591,143.367 257.594 C 144.390 257.602,144.071 257.373,142.600 257.044 C 141.724 256.848,141.562 256.885,142.000 257.182 M84.920 278.698 C 86.855 278.772,89.915 278.771,91.720 278.697 C 93.524 278.623,91.940 278.563,88.200 278.564 C 84.460 278.564,82.984 278.625,84.920 278.698 M141.000 301.623 C 141.880 301.805,143.050 301.944,143.600 301.931 C 144.241 301.916,144.026 301.789,143.000 301.577 C 142.120 301.395,140.950 301.256,140.400 301.269 C 139.759 301.284,139.974 301.411,141.000 301.623 M165.300 301.876 C 165.685 301.976,166.315 301.976,166.700 301.876 C 167.085 301.775,166.770 301.693,166.000 301.693 C 165.230 301.693,164.915 301.775,165.300 301.876 M149.923 302.299 C 152.631 302.368,156.951 302.368,159.523 302.299 C 162.095 302.229,159.880 302.172,154.600 302.173 C 149.320 302.173,147.215 302.230,149.923 302.299 " stroke="none" fill="#3eaef4" fill-rule="evenodd"></path><path id="path6" d="M246.711 98.693 C 247.651 98.778,249.091 98.777,249.911 98.691 C 250.730 98.605,249.960 98.536,248.200 98.537 C 246.440 98.539,245.770 98.609,246.711 98.693 M318.085 104.813 C 317.818 105.240,317.601 105.817,317.602 106.095 C 317.604 106.373,317.877 106.078,318.210 105.440 C 318.903 104.111,318.811 103.650,318.085 104.813 M93.600 108.125 C 93.600 108.194,94.185 108.779,94.900 109.425 L 96.200 110.600 95.025 109.300 C 93.930 108.088,93.600 107.816,93.600 108.125 M213.997 111.203 C 213.488 111.644,213.146 112.079,213.236 112.169 C 213.326 112.258,213.905 111.897,214.522 111.366 C 215.140 110.835,215.482 110.400,215.284 110.400 C 215.085 110.400,214.506 110.761,213.997 111.203 M96.400 111.064 C 96.400 111.282,96.895 111.897,97.500 112.430 L 98.600 113.400 97.600 112.200 C 97.050 111.540,96.555 110.925,96.500 110.833 C 96.445 110.742,96.400 110.845,96.400 111.064 M209.260 115.842 C 208.962 116.178,208.799 116.532,208.895 116.629 C 208.992 116.726,209.398 116.444,209.798 116.002 C 210.197 115.561,210.361 115.207,210.162 115.215 C 209.963 115.224,209.557 115.505,209.260 115.842 M206.801 118.998 C 206.286 119.548,205.939 120.064,206.032 120.146 C 206.124 120.228,206.619 119.778,207.130 119.147 C 208.276 117.735,208.074 117.644,206.801 118.998 M308.801 120.998 C 308.286 121.548,307.939 122.064,308.032 122.146 C 308.124 122.228,308.619 121.778,309.130 121.147 C 310.276 119.735,310.074 119.644,308.801 120.998 M105.238 120.900 C 105.332 120.955,106.127 121.630,107.004 122.400 L 108.600 123.800 107.222 122.300 C 106.463 121.475,105.668 120.800,105.455 120.800 C 105.241 120.800,105.144 120.845,105.238 120.900 M86.493 124.400 C 86.493 125.170,86.575 125.485,86.676 125.100 C 86.776 124.715,86.776 124.085,86.676 123.700 C 86.575 123.315,86.493 123.630,86.493 124.400 M110.488 125.413 C 111.086 126.043,111.647 126.477,111.735 126.379 C 111.823 126.280,111.333 125.765,110.647 125.234 L 109.400 124.269 110.488 125.413 M85.849 127.015 C 85.712 127.373,85.626 128.506,85.659 129.533 C 85.716 131.360,85.723 131.349,85.990 129.000 C 86.280 126.437,86.248 125.977,85.849 127.015 M114.800 129.100 C 114.800 129.269,115.160 129.632,115.600 129.907 C 116.040 130.182,116.400 130.269,116.400 130.100 C 116.400 129.931,116.040 129.568,115.600 129.293 C 115.160 129.018,114.800 128.931,114.800 129.100 M318.778 132.700 L 317.400 134.200 318.900 132.822 C 320.296 131.538,320.584 131.200,320.278 131.200 C 320.212 131.200,319.537 131.875,318.778 132.700 M312.192 139.700 L 308.600 143.400 312.300 139.808 C 315.736 136.472,316.182 136.000,315.892 136.000 C 315.832 136.000,314.167 137.665,312.192 139.700 M85.646 139.476 C 85.621 140.618,85.738 141.638,85.907 141.743 C 86.076 141.847,86.157 141.183,86.086 140.266 C 85.879 137.575,85.696 137.247,85.646 139.476 M86.493 144.400 C 86.493 145.170,86.575 145.485,86.676 145.100 C 86.776 144.715,86.776 144.085,86.676 143.700 C 86.575 143.315,86.493 143.630,86.493 144.400 M146.800 148.924 C 148.128 149.613,149.200 150.012,149.200 149.817 C 149.200 149.576,146.737 148.400,146.239 148.402 C 145.997 148.404,146.250 148.638,146.800 148.924 M190.800 160.625 C 192.203 160.935,194.718 160.990,194.543 160.707 C 194.438 160.538,193.418 160.421,192.276 160.446 C 191.134 160.472,190.470 160.552,190.800 160.625 M98.281 168.587 C 98.677 169.131,99.166 169.581,99.370 169.587 C 99.573 169.594,99.317 169.150,98.800 168.600 C 97.601 167.323,97.357 167.318,98.281 168.587 M85.067 170.267 C 84.701 170.632,84.729 173.509,85.100 173.738 C 85.265 173.840,85.400 173.041,85.400 171.962 C 85.400 170.883,85.385 170.000,85.367 170.000 C 85.348 170.000,85.213 170.120,85.067 170.267 M91.011 172.138 C 91.993 172.807,93.680 173.253,93.377 172.763 C 93.254 172.563,92.814 172.400,92.400 172.400 C 91.986 172.400,91.536 172.220,91.400 172.000 C 91.264 171.780,90.943 171.600,90.687 171.600 C 90.431 171.600,90.577 171.842,91.011 172.138 M97.600 204.869 C 97.600 205.266,99.206 206.927,99.401 206.732 C 99.509 206.625,99.148 206.114,98.598 205.599 C 98.049 205.083,97.600 204.754,97.600 204.869 M101.229 208.700 C 101.245 208.865,101.920 209.530,102.729 210.179 L 104.200 211.357 102.822 209.879 C 101.397 208.351,101.180 208.190,101.229 208.700 M121.800 220.672 C 122.240 220.793,122.749 221.097,122.930 221.346 C 123.149 221.646,123.206 221.596,123.099 221.200 C 123.010 220.870,122.501 220.567,121.969 220.526 C 121.205 220.468,121.169 220.499,121.800 220.672 M107.600 221.756 C 107.600 221.842,108.217 221.985,108.972 222.073 C 109.727 222.161,110.256 222.090,110.148 221.916 C 109.955 221.603,107.600 221.455,107.600 221.756 M117.045 221.928 C 116.933 222.108,117.373 222.177,118.021 222.082 C 118.670 221.987,119.200 221.840,119.200 221.755 C 119.200 221.450,117.243 221.607,117.045 221.928 M284.526 222.100 C 283.755 223.299,283.262 224.409,283.592 224.205 C 283.788 224.084,284.217 223.448,284.544 222.792 C 285.140 221.597,285.129 221.162,284.526 222.100 M113.234 240.647 C 113.765 241.333,114.280 241.823,114.379 241.735 C 114.477 241.647,114.043 241.086,113.413 240.488 L 112.269 239.400 113.234 240.647 M271.999 242.900 C 271.410 243.704,271.313 243.984,271.745 243.633 C 272.401 243.100,273.393 241.600,273.089 241.600 C 273.013 241.600,272.522 242.185,271.999 242.900 M123.800 249.765 C 124.460 250.332,125.165 250.797,125.367 250.798 C 125.801 250.800,125.796 250.796,124.000 249.637 L 122.600 248.734 123.800 249.765 M146.623 258.037 C 146.858 258.417,149.200 258.724,149.200 258.374 C 149.200 258.217,148.583 258.015,147.828 257.927 C 147.073 257.839,146.531 257.889,146.623 258.037 M255.375 262.500 L 254.200 263.800 255.500 262.625 C 256.215 261.979,256.800 261.394,256.800 261.325 C 256.800 261.016,256.470 261.288,255.375 262.500 M130.000 269.433 C 129.442 269.743,129.265 269.985,129.600 269.981 C 129.930 269.978,130.549 269.710,130.976 269.387 C 131.939 268.659,131.345 268.687,130.000 269.433 M112.400 275.600 C 111.576 275.864,111.541 275.926,112.200 275.954 C 112.640 275.973,113.270 275.813,113.600 275.600 C 114.301 275.147,113.814 275.147,112.400 275.600 M131.200 300.558 C 131.200 300.645,131.905 300.783,132.766 300.865 C 133.628 300.948,134.247 300.876,134.143 300.707 C 133.953 300.400,131.200 300.260,131.200 300.558 M176.705 300.683 C 177.202 300.779,177.922 300.775,178.305 300.675 C 178.687 300.575,178.280 300.496,177.400 300.501 C 176.520 300.505,176.207 300.587,176.705 300.683 M136.500 301.487 C 137.105 301.578,138.095 301.578,138.700 301.487 C 139.305 301.395,138.810 301.320,137.600 301.320 C 136.390 301.320,135.895 301.395,136.500 301.487 M170.707 301.490 C 171.426 301.579,172.506 301.577,173.107 301.486 C 173.708 301.395,173.120 301.322,171.800 301.324 C 170.480 301.326,169.988 301.401,170.707 301.490 M141.966 302.126 C 142.147 302.307,142.993 302.393,143.847 302.319 L 145.400 302.183 143.519 301.990 C 142.484 301.884,141.785 301.945,141.966 302.126 M165.600 302.000 L 163.800 302.280 165.400 302.334 C 166.280 302.363,167.270 302.213,167.600 302.000 C 167.930 301.787,168.020 301.637,167.800 301.666 C 167.580 301.696,166.590 301.846,165.600 302.000 " stroke="none" fill="#2ca4f4" fill-rule="evenodd"></path><path id="path7" d="" stroke="none" fill="#20b0f8" fill-rule="evenodd"></path><path id="path8" d="" stroke="none" fill="#24a4f8" fill-rule="evenodd"></path></g></svg>