<svg id="svg" version="1.1" xmlns="http://www.w3.org/2000/svg" xmlns:xlink="http://www.w3.org/1999/xlink" width="400" height="400" viewBox="0, 0, 400,400"><g id="svgg"><path id="path0" d="M282.600 61.583 C 281.500 61.762,278.391 62.191,275.690 62.537 C 272.990 62.882,270.564 63.299,270.299 63.462 C 270.035 63.626,268.734 63.981,267.409 64.251 C 264.779 64.788,261.953 65.694,259.289 66.855 C 258.348 67.265,257.245 67.600,256.838 67.600 C 256.431 67.600,255.874 67.870,255.600 68.200 C 255.326 68.530,254.893 68.800,254.638 68.800 C 254.382 68.800,253.009 69.426,251.587 70.192 C 250.164 70.957,248.446 71.847,247.768 72.169 C 247.091 72.490,246.304 73.034,246.019 73.377 C 245.735 73.720,245.282 74.000,245.013 74.000 C 244.744 74.000,244.198 74.360,243.800 74.800 C 243.402 75.240,242.941 75.600,242.777 75.600 C 241.753 75.600,231.152 86.137,229.000 89.294 C 226.020 93.664,225.926 93.823,223.095 99.309 C 222.048 101.339,221.193 103.160,221.195 103.356 C 221.198 103.552,220.867 104.452,220.460 105.356 C 219.416 107.675,218.404 110.693,217.964 112.800 C 217.757 113.790,217.333 115.320,217.022 116.200 C 216.711 117.080,216.352 118.830,216.226 120.089 C 216.099 121.348,215.704 123.418,215.347 124.689 C 214.785 126.690,214.672 130.844,214.503 155.679 C 214.324 182.057,214.254 184.408,213.626 184.976 C 213.028 185.517,209.790 185.607,187.572 185.697 L 162.200 185.800 162.097 215.100 L 161.995 244.400 187.171 244.400 C 202.562 244.400,212.747 244.552,213.374 244.790 L 214.400 245.180 214.400 322.590 L 214.400 400.000 245.000 400.000 L 275.600 400.000 275.600 322.862 C 275.600 248.640,275.628 245.699,276.331 245.062 C 276.996 244.461,279.377 244.400,302.280 244.400 L 327.497 244.400 327.780 241.500 C 327.936 239.905,328.301 237.520,328.593 236.200 C 328.884 234.880,329.240 232.053,329.384 229.918 C 329.528 227.783,329.822 225.443,330.038 224.718 C 330.254 223.993,330.604 221.330,330.815 218.800 C 331.026 216.270,331.460 212.940,331.778 211.400 C 332.096 209.860,332.472 206.905,332.614 204.833 C 332.755 202.762,333.037 200.629,333.241 200.093 C 333.444 199.558,333.796 196.843,334.023 194.060 C 334.250 191.277,334.613 188.462,334.831 187.804 C 335.580 185.533,336.471 185.600,305.333 185.600 L 276.818 185.600 276.185 184.633 C 275.449 183.511,275.565 142.097,276.320 136.400 C 277.129 130.289,281.291 123.316,285.475 121.061 C 288.754 119.294,291.653 118.000,292.333 118.000 C 292.755 118.000,293.887 117.690,294.850 117.312 C 296.406 116.700,298.852 116.609,316.900 116.489 L 337.200 116.353 337.200 90.000 C 337.200 71.639,337.070 63.567,336.770 63.381 C 336.534 63.235,332.799 62.953,328.470 62.753 C 324.142 62.554,318.890 62.203,316.800 61.972 C 312.046 61.447,285.302 61.143,282.600 61.583 " stroke="none" fill="#fbfbfb" fill-rule="evenodd"></path><path id="path1" d="M19.200 0.550 C 19.200 1.098,17.552 1.600,15.750 1.600 C 15.228 1.600,14.440 1.960,14.000 2.400 C 13.560 2.840,12.793 3.200,12.296 3.200 C 11.799 3.200,11.168 3.560,10.893 4.000 C 10.618 4.440,10.080 4.804,9.697 4.809 C 8.941 4.819,4.800 8.810,4.800 9.529 C 4.800 9.771,4.451 10.294,4.025 10.691 C 3.598 11.088,3.154 11.940,3.037 12.584 C 2.921 13.228,2.549 13.908,2.213 14.097 C 1.806 14.325,1.600 15.037,1.600 16.220 C 1.600 17.467,1.360 18.240,0.800 18.800 C -0.249 19.849,-0.495 381.200,0.553 381.200 C 1.195 381.200,1.587 382.406,1.595 384.404 C 1.598 385.370,1.849 385.963,2.400 386.307 C 2.910 386.626,3.200 387.240,3.200 388.003 C 3.200 388.662,3.375 389.200,3.590 389.200 C 3.804 389.200,4.242 389.695,4.562 390.300 C 5.528 392.124,8.544 395.121,9.708 395.413 C 10.309 395.563,10.800 395.937,10.800 396.243 C 10.800 396.550,11.177 396.800,11.637 396.800 C 12.097 396.800,12.931 397.160,13.491 397.600 C 14.050 398.040,14.911 398.400,15.404 398.400 C 17.156 398.400,18.800 398.908,18.800 399.450 C 18.800 399.915,33.733 400.000,115.601 400.000 L 212.402 400.000 212.301 323.182 L 212.200 246.365 187.163 246.391 L 162.126 246.417 161.063 245.354 L 160.000 244.291 160.000 215.126 C 160.000 189.765,160.080 185.806,160.610 184.780 L 161.221 183.600 186.792 183.600 L 212.364 183.600 212.482 156.500 C 212.568 136.671,212.726 129.181,213.070 128.583 C 213.328 128.133,213.664 125.973,213.817 123.783 C 213.969 121.592,214.339 119.260,214.639 118.600 C 214.939 117.940,215.359 116.157,215.571 114.637 C 215.784 113.117,216.139 111.762,216.360 111.625 C 216.581 111.488,216.888 110.571,217.042 109.588 C 217.196 108.605,217.654 107.173,218.061 106.406 C 218.467 105.639,218.800 104.775,218.800 104.485 C 218.800 104.195,219.145 103.293,219.567 102.479 C 219.989 101.666,220.527 100.550,220.764 100.000 C 221.001 99.450,221.346 98.730,221.532 98.400 C 222.631 96.451,223.233 95.275,223.630 94.300 C 223.877 93.695,224.223 93.200,224.400 93.200 C 224.577 93.200,224.910 92.660,225.140 92.000 C 225.370 91.340,225.730 90.800,225.940 90.800 C 226.150 90.800,226.510 90.260,226.740 89.600 C 226.970 88.940,227.336 88.400,227.552 88.400 C 227.769 88.400,228.049 88.075,228.175 87.678 C 228.301 87.282,229.123 86.209,230.002 85.294 C 230.881 84.379,231.600 83.444,231.600 83.215 C 231.600 82.987,231.876 82.800,232.213 82.800 C 232.549 82.800,232.936 82.512,233.071 82.160 C 233.387 81.336,234.936 79.787,235.760 79.471 C 236.112 79.336,236.400 78.949,236.400 78.613 C 236.400 78.276,236.664 78.000,236.986 78.000 C 237.308 78.000,237.765 77.640,238.000 77.200 C 238.235 76.760,238.692 76.400,239.014 76.400 C 239.336 76.400,239.600 76.230,239.600 76.021 C 239.600 75.813,240.635 74.964,241.900 74.135 C 243.165 73.306,244.306 72.478,244.435 72.295 C 244.711 71.905,246.930 70.643,248.500 69.984 C 249.105 69.730,249.600 69.366,249.600 69.176 C 249.600 68.986,250.320 68.637,251.200 68.400 C 252.080 68.163,252.800 67.799,252.800 67.590 C 252.800 67.382,253.605 67.009,254.588 66.761 C 255.571 66.514,256.583 66.061,256.837 65.756 C 257.090 65.450,257.684 65.200,258.155 65.200 C 258.626 65.200,259.639 64.867,260.406 64.461 C 261.173 64.054,262.578 63.600,263.528 63.452 C 264.479 63.303,265.649 62.937,266.128 62.638 C 266.608 62.340,268.087 61.991,269.415 61.863 C 270.744 61.735,272.454 61.379,273.215 61.073 C 276.963 59.565,318.993 59.401,329.600 60.853 C 331.250 61.079,333.846 61.422,335.369 61.615 C 339.786 62.175,339.383 59.522,339.520 88.914 C 339.586 103.041,339.540 115.147,339.418 115.815 C 338.949 118.378,338.802 118.397,319.738 118.423 C 300.377 118.449,294.174 118.753,292.759 119.744 C 292.244 120.105,291.346 120.400,290.765 120.400 C 290.184 120.400,289.279 120.735,288.754 121.145 C 288.229 121.555,287.382 122.021,286.872 122.181 C 285.815 122.512,282.000 126.015,282.000 126.655 C 282.000 126.886,281.640 127.402,281.200 127.800 C 280.760 128.198,280.399 128.811,280.397 129.162 C 280.396 129.513,280.037 130.340,279.600 131.000 C 279.161 131.663,278.804 132.877,278.803 133.713 C 278.801 134.545,278.494 135.895,278.119 136.713 C 277.509 138.044,277.422 140.575,277.287 160.900 L 277.137 183.600 306.554 183.600 C 334.880 183.600,335.987 183.628,336.372 184.348 C 336.870 185.278,336.301 194.290,335.670 195.470 C 335.428 195.921,335.059 198.728,334.849 201.708 C 334.639 204.688,334.279 207.478,334.049 207.908 C 333.819 208.338,333.459 211.128,333.249 214.108 C 333.039 217.088,332.679 219.878,332.449 220.308 C 332.219 220.738,331.859 223.528,331.649 226.508 C 331.439 229.488,331.078 232.280,330.847 232.713 C 330.615 233.145,330.261 235.875,330.061 238.778 C 329.713 243.794,329.639 244.116,328.564 245.237 L 327.434 246.417 302.521 246.309 C 282.068 246.219,277.572 246.295,277.404 246.733 C 277.292 247.026,277.200 281.631,277.200 323.633 L 277.200 400.000 329.400 400.000 C 373.577 400.000,381.600 399.915,381.600 399.447 C 381.600 398.804,382.806 398.413,384.811 398.405 C 385.722 398.402,386.465 398.117,386.907 397.600 C 387.284 397.160,387.984 396.800,388.463 396.800 C 389.295 396.800,389.690 396.525,391.768 394.500 C 392.276 394.005,392.875 393.600,393.099 393.600 C 393.323 393.600,393.601 393.240,393.716 392.800 C 393.831 392.360,394.212 392.000,394.563 392.000 C 394.913 392.000,395.200 391.754,395.200 391.454 C 395.200 391.154,395.560 390.450,396.000 389.891 C 396.440 389.331,396.800 388.585,396.800 388.233 C 396.800 387.881,397.160 387.284,397.600 386.907 C 398.164 386.424,398.400 385.727,398.400 384.544 C 398.400 382.482,398.713 381.600,399.443 381.600 C 399.918 381.600,400.000 354.957,400.000 200.000 C 400.000 45.649,399.917 18.400,399.447 18.400 C 398.827 18.400,398.414 17.206,398.405 15.389 C 398.402 14.678,398.070 13.895,397.600 13.493 C 397.160 13.116,396.800 12.455,396.800 12.024 C 396.800 11.593,396.575 11.096,396.299 10.920 C 396.024 10.744,395.536 10.091,395.215 9.469 C 394.448 7.981,391.032 4.527,390.006 4.202 C 389.563 4.061,389.200 3.778,389.200 3.573 C 389.200 3.368,388.688 3.200,388.062 3.200 C 387.432 3.200,386.601 2.843,386.200 2.400 C 385.688 1.834,384.968 1.600,383.738 1.600 C 382.533 1.600,381.755 1.355,381.200 0.800 C 380.154 -0.246,19.200 -0.495,19.200 0.550 " stroke="none" fill="#3b5b9b" fill-rule="evenodd"></path><path id="path2" d="M290.500 60.697 C 292.205 60.772,294.995 60.772,296.700 60.697 C 298.405 60.622,297.010 60.561,293.600 60.561 C 290.190 60.561,288.795 60.622,290.500 60.697 M280.500 61.076 C 280.885 61.176,281.515 61.176,281.900 61.076 C 282.285 60.975,281.970 60.893,281.200 60.893 C 280.430 60.893,280.115 60.975,280.500 61.076 M312.100 61.091 C 312.925 61.178,314.275 61.178,315.100 61.091 C 315.925 61.005,315.250 60.934,313.600 60.934 C 311.950 60.934,311.275 61.005,312.100 61.091 M319.705 61.487 C 320.314 61.579,321.214 61.577,321.705 61.482 C 322.197 61.387,321.700 61.311,320.600 61.314 C 319.500 61.317,319.097 61.395,319.705 61.487 M324.305 61.883 C 324.802 61.979,325.522 61.975,325.905 61.875 C 326.287 61.775,325.880 61.696,325.000 61.701 C 324.120 61.705,323.807 61.787,324.305 61.883 M329.900 62.282 C 330.395 62.378,331.205 62.378,331.700 62.282 C 332.195 62.187,331.790 62.109,330.800 62.109 C 329.810 62.109,329.405 62.187,329.900 62.282 M228.400 88.800 C 227.703 89.680,227.223 90.400,227.333 90.400 C 227.443 90.400,228.103 89.680,228.800 88.800 C 229.497 87.920,229.977 87.200,229.867 87.200 C 229.757 87.200,229.097 87.920,228.400 88.800 M337.364 116.396 C 337.119 116.641,330.297 116.833,319.384 116.900 L 301.800 117.009 319.451 117.104 C 334.732 117.187,337.169 117.119,337.600 116.600 C 338.155 115.931,337.981 115.779,337.364 116.396 M290.000 119.400 C 289.450 119.714,289.180 119.972,289.400 119.972 C 289.620 119.972,290.250 119.714,290.800 119.400 C 291.350 119.086,291.620 118.828,291.400 118.828 C 291.180 118.828,290.550 119.086,290.000 119.400 M214.101 129.400 C 214.105 130.280,214.187 130.593,214.283 130.095 C 214.379 129.598,214.375 128.878,214.275 128.495 C 214.175 128.113,214.096 128.520,214.101 129.400 M213.697 158.677 L 213.600 183.555 212.711 184.177 C 212.222 184.520,212.014 184.800,212.249 184.800 C 214.011 184.800,214.012 184.777,213.900 158.565 L 213.794 133.800 213.697 158.677 M276.528 142.400 C 276.528 143.830,276.601 144.415,276.689 143.700 C 276.778 142.985,276.778 141.815,276.689 141.100 C 276.601 140.385,276.528 140.970,276.528 142.400 M161.949 185.100 C 161.463 185.719,161.473 185.743,162.037 185.303 C 162.525 184.923,168.332 184.781,186.837 184.700 L 211.000 184.594 186.749 184.497 C 164.061 184.406,162.463 184.445,161.949 185.100 M292.500 184.700 C 300.145 184.761,312.655 184.761,320.300 184.700 C 327.945 184.639,321.690 184.589,306.400 184.589 C 291.110 184.589,284.855 184.639,292.500 184.700 M161.296 215.020 C 161.223 237.322,161.314 244.354,161.680 244.720 C 162.045 245.085,168.190 245.177,187.380 245.104 L 212.600 245.009 187.200 244.804 L 161.800 244.600 161.596 215.200 L 161.392 185.800 161.296 215.020 M332.893 207.200 C 332.893 207.970,332.975 208.285,333.076 207.900 C 333.176 207.515,333.176 206.885,333.076 206.500 C 332.975 206.115,332.893 206.430,332.893 207.200 M331.293 219.600 C 331.293 220.370,331.375 220.685,331.476 220.300 C 331.576 219.915,331.576 219.285,331.476 218.900 C 331.375 218.515,331.293 218.830,331.293 219.600 M329.693 232.000 C 329.693 232.770,329.775 233.085,329.876 232.700 C 329.976 232.315,329.976 231.685,329.876 231.300 C 329.775 230.915,329.693 231.230,329.693 232.000 M327.908 243.910 L 327.675 244.800 302.517 244.800 C 276.514 244.800,276.361 244.809,276.425 246.380 C 276.441 246.760,276.591 246.652,276.812 246.100 L 277.174 245.200 302.338 245.200 C 328.756 245.200,328.864 245.193,328.308 243.524 C 328.216 243.247,328.036 243.421,327.908 243.910 M213.796 323.400 C 213.796 365.640,213.843 382.861,213.900 361.668 C 213.957 340.476,213.957 305.916,213.900 284.868 C 213.843 263.821,213.796 281.160,213.796 323.400 " stroke="none" fill="#94a4cc" fill-rule="evenodd"></path><path id="path3" d="M304.105 60.287 C 304.714 60.379,305.614 60.377,306.105 60.282 C 306.597 60.187,306.100 60.111,305.000 60.114 C 303.900 60.117,303.497 60.195,304.105 60.287 M321.300 60.676 C 321.685 60.776,322.315 60.776,322.700 60.676 C 323.085 60.575,322.770 60.493,322.000 60.493 C 321.230 60.493,320.915 60.575,321.300 60.676 M338.989 90.400 C 338.989 104.590,339.039 110.395,339.100 103.300 C 339.161 96.205,339.161 84.595,339.100 77.500 C 339.039 70.405,338.989 76.210,338.989 90.400 M302.500 117.876 C 302.885 117.976,303.515 117.976,303.900 117.876 C 304.285 117.775,303.970 117.693,303.200 117.693 C 302.430 117.693,302.115 117.775,302.500 117.876 M174.529 183.900 C 181.310 183.961,192.290 183.961,198.929 183.900 C 205.568 183.838,200.020 183.788,186.600 183.788 C 173.180 183.788,167.748 183.838,174.529 183.900 M292.700 183.900 C 300.455 183.961,313.145 183.961,320.900 183.900 C 328.655 183.839,322.310 183.789,306.800 183.789 C 291.290 183.789,284.945 183.839,292.700 183.900 M160.590 214.800 C 160.590 230.530,160.639 236.965,160.700 229.100 C 160.760 221.235,160.760 208.365,160.700 200.500 C 160.639 192.635,160.590 199.070,160.590 214.800 M174.529 245.900 C 181.310 245.961,192.290 245.961,198.929 245.900 C 205.568 245.838,200.020 245.788,186.600 245.788 C 173.180 245.788,167.748 245.838,174.529 245.900 M290.700 245.900 C 297.355 245.961,308.245 245.961,314.900 245.900 C 321.555 245.838,316.110 245.788,302.800 245.788 C 289.490 245.788,284.045 245.838,290.700 245.900 " stroke="none" fill="#5474a4" fill-rule="evenodd"></path><path id="path4" d="M289.900 60.299 C 292.375 60.369,296.425 60.369,298.900 60.299 C 301.375 60.228,299.350 60.171,294.400 60.171 C 289.450 60.171,287.425 60.228,289.900 60.299 M278.705 60.683 C 279.202 60.779,279.922 60.775,280.305 60.675 C 280.687 60.575,280.280 60.496,279.400 60.501 C 278.520 60.505,278.207 60.587,278.705 60.683 M316.500 60.691 C 317.325 60.778,318.675 60.778,319.500 60.691 C 320.325 60.605,319.650 60.534,318.000 60.534 C 316.350 60.534,315.675 60.605,316.500 60.691 M274.600 61.200 C 273.581 61.638,274.632 61.638,276.000 61.200 C 276.804 60.943,276.843 60.877,276.200 60.868 C 275.760 60.862,275.040 61.011,274.600 61.200 M325.400 61.218 C 328.147 61.646,330.431 61.612,328.000 61.180 C 327.010 61.003,325.570 60.870,324.800 60.883 C 323.655 60.903,323.765 60.964,325.400 61.218 M331.300 61.876 C 331.685 61.976,332.315 61.976,332.700 61.876 C 333.085 61.775,332.770 61.693,332.000 61.693 C 331.230 61.693,330.915 61.775,331.300 61.876 M338.400 90.280 C 338.290 104.844,338.336 116.624,338.503 116.457 C 338.670 116.291,338.759 104.374,338.703 89.977 L 338.600 63.800 338.400 90.280 M218.065 107.417 C 217.395 108.888,217.523 109.202,218.247 107.865 C 218.586 107.240,218.788 106.654,218.696 106.563 C 218.605 106.471,218.321 106.856,218.065 107.417 M298.600 118.000 L 297.400 118.305 298.600 118.305 C 299.260 118.305,300.340 118.168,301.000 118.000 L 302.200 117.695 301.000 117.695 C 300.340 117.695,299.260 117.832,298.600 118.000 M214.649 119.815 C 214.512 120.173,214.415 120.766,214.434 121.133 C 214.453 121.500,214.627 121.269,214.821 120.620 C 215.198 119.358,215.065 118.733,214.649 119.815 M213.120 130.900 C 212.883 131.194,212.645 183.916,212.881 183.679 C 213.131 183.429,213.548 130.800,213.300 130.800 C 213.245 130.800,213.164 130.845,213.120 130.900 M277.800 134.800 C 277.650 135.273,277.617 135.750,277.727 135.860 C 277.837 135.970,278.050 135.673,278.200 135.200 C 278.350 134.727,278.383 134.250,278.273 134.140 C 278.163 134.030,277.950 134.327,277.800 134.800 M276.896 162.851 C 276.806 182.110,276.847 183.539,277.500 184.051 C 278.119 184.537,278.143 184.527,277.704 183.963 C 277.327 183.480,277.182 178.388,277.100 162.763 L 276.993 142.200 276.896 162.851 M335.300 184.432 C 335.685 184.656,336.014 185.146,336.032 185.520 C 336.052 185.958,336.137 186.017,336.269 185.687 C 336.509 185.091,335.711 183.994,335.051 184.012 C 334.803 184.019,334.915 184.208,335.300 184.432 M336.093 188.400 C 336.093 189.170,336.175 189.485,336.276 189.100 C 336.376 188.715,336.376 188.085,336.276 187.700 C 336.175 187.315,336.093 187.630,336.093 188.400 M335.422 192.222 C 335.272 193.025,335.238 193.772,335.348 193.882 C 335.458 193.992,335.672 193.425,335.822 192.622 C 335.973 191.819,336.006 191.073,335.896 190.963 C 335.786 190.853,335.573 191.419,335.422 192.222 M334.493 200.800 C 334.493 201.570,334.575 201.885,334.676 201.500 C 334.776 201.115,334.776 200.485,334.676 200.100 C 334.575 199.715,334.493 200.030,334.493 200.800 M333.822 204.622 C 333.672 205.425,333.628 206.162,333.726 206.260 C 333.824 206.357,334.027 205.781,334.178 204.978 C 334.328 204.175,334.372 203.438,334.274 203.340 C 334.176 203.243,333.973 203.819,333.822 204.622 M332.893 213.200 C 332.893 213.970,332.975 214.285,333.076 213.900 C 333.176 213.515,333.176 212.885,333.076 212.500 C 332.975 212.115,332.893 212.430,332.893 213.200 M332.222 217.022 C 332.072 217.825,332.028 218.562,332.126 218.660 C 332.224 218.757,332.427 218.181,332.578 217.378 C 332.728 216.575,332.772 215.838,332.674 215.740 C 332.576 215.643,332.373 216.219,332.222 217.022 M331.293 225.600 C 331.293 226.370,331.375 226.685,331.476 226.300 C 331.576 225.915,331.576 225.285,331.476 224.900 C 331.375 224.515,331.293 224.830,331.293 225.600 M330.622 229.422 C 330.472 230.225,330.428 230.962,330.526 231.060 C 330.624 231.157,330.827 230.581,330.978 229.778 C 331.128 228.975,331.172 228.238,331.074 228.140 C 330.976 228.043,330.773 228.619,330.622 229.422 M329.693 238.000 C 329.693 238.770,329.775 239.085,329.876 238.700 C 329.976 238.315,329.976 237.685,329.876 237.300 C 329.775 236.915,329.693 237.230,329.693 238.000 M329.249 240.600 C 329.216 241.040,329.096 241.850,328.983 242.400 L 328.777 243.400 329.206 242.419 C 329.442 241.879,329.561 241.069,329.472 240.619 C 329.313 239.821,329.307 239.821,329.249 240.600 M212.996 323.400 C 212.996 365.640,213.043 382.861,213.100 361.668 C 213.157 340.476,213.157 305.916,213.100 284.868 C 213.043 263.821,212.996 281.160,212.996 323.400 M276.996 323.400 C 276.996 365.640,277.043 382.861,277.100 361.668 C 277.157 340.476,277.157 305.916,277.100 284.868 C 277.043 263.821,276.996 281.160,276.996 323.400 " stroke="none" fill="#5c74a4" fill-rule="evenodd"></path><path id="path5" d="M280.400 61.195 C 273.450 62.258,270.282 62.839,267.600 63.542 C 241.301 70.440,224.486 87.131,217.004 113.765 C 216.639 115.066,216.066 117.586,215.731 119.365 C 215.396 121.144,214.940 123.410,214.717 124.400 C 214.474 125.479,214.237 137.657,214.126 154.800 C 213.961 180.136,213.868 183.480,213.308 184.100 C 212.719 184.753,210.974 184.800,187.587 184.800 C 166.919 184.800,162.418 184.896,162.046 185.344 C 161.718 185.740,161.623 193.890,161.697 215.244 L 161.800 244.600 187.280 244.800 C 207.442 244.958,212.869 245.109,213.280 245.520 C 213.702 245.942,213.838 260.631,214.003 323.120 L 214.205 400.200 214.303 322.690 L 214.400 245.180 213.374 244.790 C 212.747 244.552,202.562 244.400,187.171 244.400 L 161.995 244.400 162.097 215.100 L 162.200 185.800 187.572 185.697 C 209.790 185.607,213.028 185.517,213.626 184.976 C 214.254 184.408,214.324 182.057,214.503 155.679 C 214.672 130.844,214.785 126.690,215.347 124.689 C 215.704 123.418,216.099 121.348,216.226 120.089 C 216.352 118.830,216.711 117.080,217.022 116.200 C 217.333 115.320,217.757 113.790,217.964 112.800 C 218.404 110.693,219.416 107.675,220.460 105.356 C 220.867 104.452,221.198 103.552,221.195 103.356 C 221.193 103.160,222.048 101.339,223.095 99.309 C 225.926 93.823,226.020 93.664,229.000 89.294 C 231.152 86.137,241.753 75.600,242.777 75.600 C 242.941 75.600,243.402 75.240,243.800 74.800 C 244.198 74.360,244.744 74.000,245.013 74.000 C 245.282 74.000,245.735 73.720,246.019 73.377 C 246.304 73.034,247.091 72.490,247.768 72.169 C 248.446 71.847,250.164 70.957,251.587 70.192 C 253.009 69.426,254.382 68.800,254.638 68.800 C 254.893 68.800,255.326 68.530,255.600 68.200 C 255.874 67.870,256.431 67.600,256.838 67.600 C 257.245 67.600,258.348 67.265,259.289 66.855 C 261.953 65.694,264.779 64.788,267.409 64.251 C 268.734 63.981,270.036 63.625,270.302 63.461 C 270.568 63.296,272.814 62.907,275.293 62.596 C 277.772 62.285,281.240 61.825,283.000 61.575 C 286.771 61.038,310.849 61.323,316.800 61.975 C 318.890 62.204,324.142 62.554,328.470 62.753 C 332.799 62.953,336.534 63.235,336.770 63.381 C 337.070 63.567,337.200 71.639,337.200 90.000 L 337.200 116.353 316.900 116.489 C 298.852 116.609,296.406 116.700,294.850 117.312 C 293.887 117.690,292.755 118.000,292.333 118.000 C 291.653 118.000,288.754 119.294,285.475 121.061 C 281.291 123.316,277.129 130.289,276.320 136.400 C 275.565 142.097,275.449 183.511,276.185 184.633 L 276.818 185.600 305.333 185.600 C 336.471 185.600,335.580 185.533,334.831 187.804 C 334.613 188.462,334.250 191.277,334.023 194.060 C 333.796 196.843,333.444 199.558,333.241 200.093 C 333.037 200.629,332.755 202.762,332.614 204.833 C 332.472 206.905,332.096 209.860,331.778 211.400 C 331.460 212.940,331.026 216.270,330.815 218.800 C 330.604 221.330,330.254 223.993,330.038 224.718 C 329.822 225.443,329.528 227.783,329.384 229.918 C 329.240 232.053,328.884 234.880,328.593 236.200 C 328.301 237.520,327.936 239.905,327.780 241.500 L 327.497 244.400 302.210 244.400 C 278.221 244.400,276.890 244.438,276.262 245.131 C 275.473 246.003,275.213 400.000,276.000 400.000 C 276.265 400.000,276.400 374.027,276.400 322.880 C 276.400 263.431,276.510 245.650,276.880 245.280 C 277.243 244.917,283.470 244.800,302.456 244.800 C 319.650 244.800,327.635 244.667,327.814 244.377 C 328.113 243.893,328.590 240.977,329.215 235.800 C 329.454 233.820,329.909 230.490,330.226 228.400 C 330.543 226.310,330.992 222.710,331.224 220.400 C 331.456 218.090,331.801 215.480,331.991 214.600 C 332.181 213.720,332.449 211.740,332.587 210.200 C 332.725 208.660,333.176 205.060,333.590 202.200 C 334.005 199.340,334.562 195.200,334.829 193.000 C 335.096 190.800,335.401 188.294,335.506 187.430 C 335.844 184.658,337.454 184.800,305.773 184.800 C 281.435 184.800,277.228 184.716,276.818 184.222 C 276.454 183.783,276.376 177.966,276.494 159.922 L 276.649 136.200 277.751 132.903 C 282.305 119.279,288.661 116.861,320.020 116.822 C 332.700 116.805,337.162 116.678,337.520 116.320 C 338.122 115.718,338.218 65.427,337.620 63.854 C 337.171 62.672,337.487 62.723,324.800 61.772 C 314.847 61.025,284.118 60.626,280.400 61.195 " stroke="none" fill="#a4accc" fill-rule="evenodd"></path><path id="path6" d="M282.512 60.695 C 283.564 60.777,285.184 60.776,286.112 60.692 C 287.040 60.608,286.180 60.541,284.200 60.542 C 282.220 60.543,281.460 60.612,282.512 60.695 M303.521 60.699 C 305.788 60.770,309.388 60.770,311.521 60.698 C 313.655 60.626,311.800 60.568,307.400 60.568 C 303.000 60.568,301.255 60.627,303.521 60.699 M275.200 61.434 L 273.400 61.989 275.200 61.741 C 276.190 61.604,277.720 61.359,278.600 61.196 L 280.200 60.900 278.600 60.889 C 277.720 60.883,276.190 61.128,275.200 61.434 M319.800 61.213 C 321.780 61.374,325.110 61.612,327.200 61.741 L 331.000 61.975 326.800 61.414 C 324.490 61.105,321.160 60.868,319.400 60.887 L 316.200 60.921 319.800 61.213 M270.900 62.276 C 271.285 62.376,271.915 62.376,272.300 62.276 C 272.685 62.175,272.370 62.093,271.600 62.093 C 270.830 62.093,270.515 62.175,270.900 62.276 M333.507 62.290 C 334.226 62.379,335.306 62.377,335.907 62.286 C 336.508 62.195,335.920 62.122,334.600 62.124 C 333.280 62.126,332.788 62.201,333.507 62.290 M267.400 62.986 C 265.852 63.694,266.967 63.706,268.800 63.000 C 269.708 62.650,269.919 62.457,269.400 62.448 C 268.960 62.442,268.060 62.683,267.400 62.986 M337.578 63.074 C 338.217 64.396,338.161 116.079,337.520 116.720 C 337.199 117.041,337.185 117.200,337.477 117.200 C 338.668 117.200,338.961 64.453,337.778 62.976 C 337.177 62.226,337.170 62.230,337.578 63.074 M262.600 64.378 C 260.529 65.358,260.856 65.365,263.600 64.400 C 264.810 63.974,265.440 63.625,265.000 63.624 C 264.560 63.622,263.480 63.962,262.600 64.378 M258.211 65.825 C 256.782 66.570,256.283 67.053,257.400 66.610 C 257.840 66.435,258.830 66.054,259.600 65.764 C 260.505 65.422,260.717 65.230,260.200 65.220 C 259.760 65.212,258.865 65.484,258.211 65.825 M254.200 67.600 C 252.661 68.619,253.001 68.619,255.000 67.600 C 255.863 67.160,256.306 66.801,255.985 66.803 C 255.663 66.804,254.860 67.163,254.200 67.600 M250.200 69.545 C 247.778 70.840,244.800 72.741,244.800 72.993 C 244.800 73.094,245.655 72.645,246.700 71.996 C 247.745 71.346,248.974 70.647,249.431 70.443 C 250.728 69.864,253.045 68.399,252.600 68.440 C 252.380 68.460,251.300 68.957,250.200 69.545 M241.196 75.329 C 236.806 78.657,229.829 85.650,228.755 87.800 C 228.535 88.240,229.129 87.700,230.074 86.600 C 233.646 82.443,236.712 79.417,240.100 76.705 C 242.025 75.164,243.600 73.835,243.600 73.752 C 243.600 73.514,243.530 73.560,241.196 75.329 M226.614 90.700 C 225.847 91.745,225.215 92.765,225.210 92.967 C 225.198 93.422,225.179 93.445,226.947 90.900 C 228.766 88.281,228.504 88.124,226.614 90.700 M224.155 94.612 C 223.790 95.169,223.564 95.698,223.653 95.787 C 223.742 95.876,224.118 95.420,224.489 94.774 C 225.314 93.336,225.069 93.217,224.155 94.612 M221.511 99.716 C 220.454 101.790,219.179 104.912,219.328 105.061 C 219.403 105.137,220.126 103.729,220.933 101.933 C 222.390 98.693,222.766 97.252,221.511 99.716 M217.850 108.791 C 217.493 109.685,217.206 110.728,217.213 111.108 C 217.220 111.489,217.567 110.812,217.984 109.604 C 218.877 107.016,218.785 106.455,217.850 108.791 M216.491 113.300 C 216.221 114.046,216.013 114.914,216.028 115.228 C 216.044 115.543,216.317 115.089,216.635 114.220 C 216.953 113.351,217.161 112.483,217.097 112.292 C 217.033 112.100,216.760 112.554,216.491 113.300 M297.400 117.821 C 296.300 118.120,296.030 118.259,296.800 118.129 C 297.570 117.999,306.930 117.776,317.600 117.634 L 337.000 117.375 318.200 117.326 C 303.474 117.287,298.967 117.395,297.400 117.821 M214.893 120.331 C 214.622 121.502,214.415 122.852,214.433 123.331 C 214.452 123.809,214.727 123.124,215.045 121.808 C 215.363 120.492,215.570 119.142,215.505 118.808 C 215.440 118.474,215.164 119.159,214.893 120.331 M290.800 119.400 C 290.250 119.714,289.980 119.972,290.200 119.972 C 290.420 119.972,291.050 119.714,291.600 119.400 C 292.150 119.086,292.420 118.828,292.200 118.828 C 291.980 118.828,291.350 119.086,290.800 119.400 M286.738 121.185 C 285.713 121.828,284.737 122.590,284.569 122.877 C 284.400 123.165,284.608 123.101,285.031 122.736 C 285.454 122.371,286.682 121.606,287.760 121.036 C 288.837 120.466,289.467 120.003,289.160 120.008 C 288.852 120.012,287.762 120.542,286.738 121.185 M282.196 124.900 C 280.824 126.490,278.543 130.400,278.987 130.400 C 279.097 130.400,279.621 129.545,280.152 128.500 C 280.682 127.455,281.540 126.139,282.058 125.575 C 283.506 124.000,284.119 123.200,283.880 123.200 C 283.760 123.200,283.002 123.965,282.196 124.900 M214.114 126.200 C 214.117 127.300,214.195 127.703,214.287 127.095 C 214.379 126.486,214.377 125.586,214.282 125.095 C 214.187 124.603,214.111 125.100,214.114 126.200 M213.461 132.300 C 213.320 133.785,213.204 145.924,213.203 159.276 C 213.201 174.208,213.053 183.643,212.819 183.788 C 212.610 183.918,201.263 184.016,187.604 184.006 C 162.287 183.988,161.200 184.050,161.200 185.503 C 161.200 186.041,161.328 185.995,161.830 185.278 L 162.461 184.378 187.493 184.412 C 207.615 184.439,212.626 184.344,213.038 183.923 C 213.442 183.511,214.157 129.599,213.758 129.600 C 213.735 129.600,213.601 130.815,213.461 132.300 M277.900 133.166 C 276.953 136.410,277.056 137.192,278.036 134.206 C 278.469 132.889,278.772 131.576,278.711 131.289 C 278.650 131.001,278.285 131.846,277.900 133.166 M276.928 140.000 C 276.928 141.430,277.001 142.015,277.089 141.300 C 277.178 140.585,277.178 139.415,277.089 138.700 C 277.001 137.985,276.928 138.570,276.928 140.000 M276.585 164.000 C 276.585 174.670,276.637 179.035,276.700 173.700 C 276.763 168.365,276.763 159.635,276.700 154.300 C 276.637 148.965,276.585 153.330,276.585 164.000 M277.041 183.962 C 277.377 184.327,284.154 184.435,305.331 184.411 C 335.675 184.377,335.020 184.339,335.862 186.154 L 336.440 187.400 336.198 186.200 C 335.734 183.896,337.006 183.989,306.095 184.005 C 290.399 184.014,277.342 183.900,277.079 183.752 C 276.726 183.553,276.716 183.609,277.041 183.962 M160.990 215.200 C 160.990 231.150,161.039 237.675,161.100 229.700 C 161.160 221.725,161.160 208.675,161.100 200.700 C 161.039 192.725,160.990 199.250,160.990 215.200 M335.242 190.922 C 334.950 192.859,334.786 194.519,334.878 194.611 C 335.144 194.877,336.100 189.011,335.929 188.165 C 335.843 187.744,335.534 188.985,335.242 190.922 M334.514 197.800 C 334.517 198.900,334.595 199.303,334.687 198.695 C 334.779 198.086,334.777 197.186,334.682 196.695 C 334.587 196.203,334.511 196.700,334.514 197.800 M333.885 201.800 C 333.202 206.243,333.169 207.534,333.807 204.800 C 334.140 203.370,334.364 201.660,334.303 201.000 C 334.216 200.060,334.125 200.234,333.885 201.800 M332.914 210.200 C 332.917 211.300,332.995 211.703,333.087 211.095 C 333.179 210.486,333.177 209.586,333.082 209.095 C 332.987 208.603,332.911 209.100,332.914 210.200 M332.100 215.107 C 331.427 219.018,331.522 220.442,332.239 217.200 C 332.555 215.770,332.766 214.060,332.707 213.400 C 332.637 212.613,332.428 213.202,332.100 215.107 M331.314 222.600 C 331.317 223.700,331.395 224.103,331.487 223.495 C 331.579 222.886,331.577 221.986,331.482 221.495 C 331.387 221.003,331.311 221.500,331.314 222.600 M330.456 228.139 C 330.159 230.070,329.991 231.724,330.081 231.814 C 330.338 232.071,331.301 226.218,331.139 225.379 C 331.059 224.965,330.752 226.207,330.456 228.139 M329.714 235.000 C 329.717 236.100,329.795 236.503,329.887 235.895 C 329.979 235.286,329.977 234.386,329.882 233.895 C 329.787 233.403,329.711 233.900,329.714 235.000 M328.831 240.360 C 328.539 242.160,328.386 243.719,328.492 243.825 C 328.758 244.091,329.737 238.211,329.530 237.590 C 329.438 237.313,329.123 238.560,328.831 240.360 M174.500 245.500 C 181.265 245.561,192.335 245.561,199.100 245.500 C 205.865 245.438,200.330 245.388,186.800 245.388 C 173.270 245.388,167.735 245.438,174.500 245.500 M212.400 245.592 C 212.929 245.926,213.024 255.122,213.203 323.085 L 213.405 400.200 213.503 323.474 C 213.600 246.928,213.573 245.190,212.286 245.206 C 211.982 245.210,212.025 245.355,212.400 245.592 M276.790 246.226 C 276.540 246.883,276.435 274.761,276.497 323.726 L 276.595 400.200 276.797 323.200 C 276.909 280.850,277.146 245.975,277.324 245.700 C 277.502 245.425,277.542 245.200,277.414 245.200 C 277.285 245.200,277.005 245.662,276.790 246.226 M290.500 245.500 C 297.265 245.561,308.335 245.561,315.100 245.500 C 321.865 245.438,316.330 245.388,302.800 245.388 C 289.270 245.388,283.735 245.438,290.500 245.500 " stroke="none" fill="#748cbc" fill-rule="evenodd"></path><path id="path7" d="M13.600 0.400 C 13.600 0.620,12.880 0.800,12.000 0.800 C 10.667 0.800,10.400 0.933,10.400 1.600 C 10.400 2.252,10.133 2.400,8.963 2.400 C 7.862 2.400,7.476 2.587,7.316 3.200 C 7.200 3.643,6.770 4.000,6.353 4.000 C 5.867 4.000,5.600 4.283,5.600 4.800 C 5.600 5.333,5.333 5.600,4.800 5.600 C 4.283 5.600,4.000 5.867,4.000 6.353 C 4.000 6.770,3.643 7.200,3.200 7.316 C 2.587 7.476,2.400 7.862,2.400 8.963 C 2.400 10.133,2.252 10.400,1.600 10.400 C 0.933 10.400,0.800 10.667,0.800 12.000 C 0.800 12.880,0.620 13.600,0.400 13.600 C 0.171 13.600,0.000 14.800,0.000 16.400 C 0.000 17.940,0.174 19.200,0.386 19.200 C 1.037 19.200,1.600 17.736,1.600 16.046 C 1.600 15.020,1.821 14.316,2.213 14.097 C 2.549 13.908,2.921 13.228,3.037 12.584 C 3.154 11.940,3.598 11.088,4.025 10.691 C 4.451 10.294,4.804 9.751,4.809 9.484 C 4.823 8.758,8.990 4.800,9.741 4.800 C 10.100 4.800,10.618 4.440,10.893 4.000 C 11.168 3.560,11.799 3.200,12.296 3.200 C 12.793 3.200,13.560 2.840,14.000 2.400 C 14.440 1.960,15.228 1.600,15.750 1.600 C 17.552 1.600,19.200 1.098,19.200 0.550 C 19.200 0.136,18.509 0.000,16.400 0.000 C 14.800 0.000,13.600 0.171,13.600 0.400 M380.800 0.386 C 380.800 1.031,382.258 1.600,383.912 1.600 C 384.968 1.600,385.711 1.860,386.200 2.400 C 386.601 2.843,387.432 3.200,388.062 3.200 C 388.688 3.200,389.200 3.368,389.200 3.573 C 389.200 3.778,389.563 4.061,390.006 4.202 C 391.032 4.527,394.448 7.981,395.215 9.469 C 395.536 10.091,396.024 10.744,396.299 10.920 C 396.575 11.096,396.800 11.593,396.800 12.024 C 396.800 12.455,397.160 13.116,397.600 13.493 C 398.070 13.895,398.402 14.678,398.405 15.389 C 398.414 17.206,398.827 18.400,399.447 18.400 C 399.872 18.400,400.000 17.658,400.000 15.200 C 400.000 13.333,399.833 12.000,399.600 12.000 C 399.380 12.000,399.200 11.548,399.200 10.996 C 399.200 10.444,398.840 9.684,398.400 9.307 C 397.960 8.930,397.600 8.302,397.600 7.911 C 397.600 7.467,397.300 7.200,396.800 7.200 C 396.267 7.200,396.000 6.933,396.000 6.400 C 396.000 5.867,395.733 5.600,395.200 5.600 C 394.667 5.600,394.400 5.333,394.400 4.800 C 394.400 4.267,394.133 4.000,393.600 4.000 C 393.067 4.000,392.800 3.733,392.800 3.200 C 392.800 2.578,392.533 2.400,391.603 2.400 C 390.840 2.400,390.226 2.110,389.907 1.600 C 389.604 1.114,388.974 0.800,388.304 0.800 C 387.697 0.800,387.200 0.620,387.200 0.400 C 387.200 0.167,385.867 0.000,384.000 0.000 C 382.211 0.000,380.800 0.170,380.800 0.386 M0.000 384.200 C 0.000 385.933,0.169 387.200,0.400 387.200 C 0.620 387.200,0.800 387.697,0.800 388.304 C 0.800 388.974,1.114 389.604,1.600 389.907 C 2.110 390.226,2.400 390.840,2.400 391.603 C 2.400 392.533,2.578 392.800,3.200 392.800 C 3.733 392.800,4.000 393.067,4.000 393.600 C 4.000 394.133,4.267 394.400,4.800 394.400 C 5.333 394.400,5.600 394.667,5.600 395.200 C 5.600 395.733,5.867 396.000,6.400 396.000 C 6.933 396.000,7.200 396.267,7.200 396.800 C 7.200 397.300,7.467 397.600,7.911 397.600 C 8.302 397.600,8.930 397.960,9.307 398.400 C 9.684 398.840,10.444 399.200,10.996 399.200 C 11.548 399.200,12.000 399.380,12.000 399.600 C 12.000 399.835,13.400 400.000,15.400 400.000 C 18.018 400.000,18.800 399.874,18.800 399.450 C 18.800 398.908,17.156 398.400,15.404 398.400 C 14.911 398.400,14.050 398.040,13.491 397.600 C 12.931 397.160,12.097 396.800,11.637 396.800 C 11.177 396.800,10.800 396.550,10.800 396.243 C 10.800 395.937,10.309 395.563,9.708 395.413 C 8.544 395.121,5.528 392.124,4.562 390.300 C 4.242 389.695,3.804 389.200,3.590 389.200 C 3.375 389.200,3.200 388.662,3.200 388.003 C 3.200 387.240,2.910 386.626,2.400 386.307 C 1.849 385.963,1.598 385.370,1.595 384.404 C 1.587 382.406,1.195 381.200,0.553 381.200 C 0.131 381.200,0.000 381.912,0.000 384.200 M398.643 382.233 C 398.509 382.581,398.400 383.621,398.400 384.544 C 398.400 385.727,398.164 386.424,397.600 386.907 C 397.160 387.284,396.800 387.881,396.800 388.233 C 396.800 388.585,396.440 389.331,396.000 389.891 C 395.560 390.450,395.200 391.133,395.200 391.407 C 395.200 391.682,394.840 392.001,394.400 392.116 C 393.960 392.231,393.600 392.612,393.600 392.963 C 393.600 393.313,393.396 393.600,393.146 393.600 C 392.896 393.600,392.276 394.005,391.768 394.500 C 389.690 396.525,389.295 396.800,388.463 396.800 C 387.984 396.800,387.284 397.160,386.907 397.600 C 386.465 398.117,385.722 398.402,384.811 398.405 C 382.806 398.413,381.600 398.804,381.600 399.447 C 381.600 399.872,382.342 400.000,384.800 400.000 C 386.667 400.000,388.000 399.833,388.000 399.600 C 388.000 399.380,388.647 399.200,389.437 399.200 C 390.538 399.200,390.924 399.013,391.084 398.400 C 391.200 397.957,391.630 397.600,392.047 397.600 C 392.533 397.600,392.800 397.317,392.800 396.800 C 392.800 396.267,393.067 396.000,393.600 396.000 C 394.133 396.000,394.400 395.733,394.400 395.200 C 394.400 394.667,394.667 394.400,395.200 394.400 C 395.733 394.400,396.000 394.133,396.000 393.600 C 396.000 393.067,396.267 392.800,396.800 392.800 C 397.317 392.800,397.600 392.533,397.600 392.047 C 397.600 391.630,397.957 391.200,398.400 391.084 C 399.013 390.924,399.200 390.538,399.200 389.437 C 399.200 388.647,399.380 388.000,399.600 388.000 C 399.833 388.000,400.000 386.667,400.000 384.800 C 400.000 381.669,399.339 380.419,398.643 382.233 " stroke="none" fill="#445e91" fill-rule="evenodd"></path><path id="path8" d="M290.300 59.898 C 292.115 59.972,295.085 59.972,296.900 59.898 C 298.715 59.823,297.230 59.763,293.600 59.763 C 289.970 59.763,288.485 59.823,290.300 59.898 M281.500 60.282 C 281.995 60.378,282.805 60.378,283.300 60.282 C 283.795 60.187,283.390 60.109,282.400 60.109 C 281.410 60.109,281.005 60.187,281.500 60.282 M308.713 60.295 C 309.876 60.376,311.676 60.376,312.713 60.293 C 313.751 60.211,312.800 60.145,310.600 60.146 C 308.400 60.147,307.551 60.214,308.713 60.295 M273.400 61.022 C 272.385 61.518,272.354 61.572,273.200 61.369 C 273.750 61.238,274.830 60.987,275.600 60.811 C 276.983 60.496,276.985 60.492,275.800 60.464 C 275.140 60.449,274.060 60.700,273.400 61.022 M326.200 60.794 C 327.740 60.966,329.900 61.222,331.000 61.364 C 332.548 61.563,332.789 61.528,332.064 61.210 C 331.550 60.984,329.390 60.728,327.264 60.640 C 323.755 60.495,323.657 60.509,326.200 60.794 M334.900 61.876 C 335.285 61.976,335.915 61.976,336.300 61.876 C 336.685 61.775,336.370 61.693,335.600 61.693 C 334.830 61.693,334.515 61.775,334.900 61.876 M266.176 62.587 C 265.749 62.910,265.589 63.180,265.820 63.187 C 266.051 63.194,266.411 63.037,266.620 62.839 C 266.829 62.640,267.360 62.391,267.800 62.285 C 268.580 62.097,268.580 62.092,267.776 62.046 C 267.324 62.021,266.604 62.264,266.176 62.587 M338.609 63.441 C 339.558 66.103,339.453 115.599,338.496 116.781 C 337.794 117.648,337.746 117.650,321.596 117.642 C 311.322 117.636,303.955 117.810,301.449 118.116 C 298.043 118.533,300.190 118.586,317.049 118.497 C 338.836 118.383,338.951 118.369,339.413 115.841 C 340.040 112.409,339.407 63.235,338.727 62.555 C 338.096 61.925,338.089 61.980,338.609 63.441 M260.976 64.187 C 259.966 64.951,260.404 64.959,261.854 64.202 C 262.484 63.874,262.719 63.604,262.376 63.602 C 262.034 63.601,261.404 63.864,260.976 64.187 M222.911 95.700 C 222.129 96.711,221.863 97.332,222.336 97.040 C 222.810 96.747,223.757 95.200,223.463 95.200 C 223.372 95.200,223.124 95.425,222.911 95.700 M217.632 107.139 C 217.395 107.584,217.201 108.184,217.202 108.474 C 217.204 108.763,217.477 108.478,217.810 107.840 C 218.142 107.203,218.336 106.602,218.240 106.506 C 218.143 106.410,217.870 106.695,217.632 107.139 M215.824 112.647 C 215.455 114.117,215.748 114.204,216.283 112.785 C 216.529 112.133,216.586 111.600,216.409 111.600 C 216.232 111.600,215.968 112.071,215.824 112.647 M214.390 119.026 C 214.176 119.590,214.018 120.445,214.041 120.926 C 214.072 121.598,214.153 121.523,214.391 120.600 C 214.562 119.940,214.833 119.085,214.993 118.700 C 215.154 118.315,215.172 118.000,215.033 118.000 C 214.894 118.000,214.605 118.462,214.390 119.026 M291.600 119.833 C 290.977 120.179,290.835 120.390,291.224 120.394 C 291.566 120.397,292.196 120.136,292.624 119.813 C 293.594 119.078,292.937 119.092,291.600 119.833 M288.056 121.213 C 286.816 122.246,287.375 122.235,288.691 121.200 C 289.250 120.760,289.549 120.406,289.354 120.413 C 289.159 120.421,288.575 120.781,288.056 121.213 M212.944 128.700 C 212.756 129.085,212.593 141.640,212.581 156.600 L 212.560 183.800 212.814 157.000 C 212.954 142.260,213.209 129.705,213.381 129.100 C 213.731 127.868,213.467 127.627,212.944 128.700 M279.657 130.057 C 279.375 130.509,279.232 130.966,279.340 131.073 C 279.447 131.181,279.744 130.878,280.000 130.400 C 280.605 129.270,280.324 128.990,279.657 130.057 M278.081 135.645 C 277.797 136.555,277.645 137.378,277.743 137.476 C 277.988 137.721,278.896 134.888,278.731 134.392 C 278.657 134.172,278.365 134.736,278.081 135.645 M277.309 140.400 C 277.309 141.390,277.387 141.795,277.482 141.300 C 277.578 140.805,277.578 139.995,277.482 139.500 C 277.387 139.005,277.309 139.410,277.309 140.400 M160.610 184.780 C 160.080 185.806,160.000 189.765,160.000 215.126 L 160.000 244.291 161.063 245.354 L 162.126 246.416 187.312 246.391 C 201.165 246.377,212.406 246.273,212.293 246.159 C 212.179 246.046,200.933 245.969,187.301 245.988 C 163.343 246.021,162.485 245.997,161.558 245.247 L 160.600 244.471 160.490 215.816 C 160.377 186.447,160.474 184.250,161.908 183.874 C 162.561 183.703,162.561 183.690,161.910 183.646 C 161.522 183.620,160.954 184.116,160.610 184.780 M336.493 186.000 C 336.493 186.770,336.575 187.085,336.676 186.700 C 336.776 186.315,336.776 185.685,336.676 185.300 C 336.575 184.915,336.493 185.230,336.493 186.000 M336.064 191.640 C 336.029 192.432,335.799 193.657,335.554 194.361 C 335.308 195.065,335.206 195.740,335.327 195.861 C 335.705 196.238,336.455 192.808,336.287 191.471 C 336.129 190.204,336.128 190.205,336.064 191.640 M334.261 204.700 C 334.126 205.525,333.911 206.740,333.784 207.400 C 333.612 208.289,333.655 208.439,333.951 207.979 C 334.384 207.307,335.031 203.200,334.704 203.200 C 334.595 203.200,334.395 203.875,334.261 204.700 M332.666 216.887 C 332.534 217.829,332.315 219.140,332.181 219.800 C 331.999 220.696,332.042 220.849,332.352 220.403 C 332.808 219.748,333.413 215.680,333.102 215.369 C 332.995 215.261,332.799 215.945,332.666 216.887 M331.066 229.287 C 330.934 230.229,330.715 231.540,330.581 232.200 C 330.399 233.096,330.442 233.249,330.752 232.803 C 331.208 232.148,331.813 228.080,331.502 227.769 C 331.395 227.661,331.199 228.345,331.066 229.287 M329.632 241.113 C 329.509 246.192,330.441 246.029,301.852 245.988 C 284.578 245.963,277.393 246.079,277.338 246.386 C 277.295 246.625,277.336 246.680,277.430 246.510 C 277.523 246.340,288.791 246.249,302.469 246.309 L 327.338 246.418 328.453 245.349 C 329.555 244.293,330.344 241.502,329.873 240.325 C 329.758 240.036,329.649 240.391,329.632 241.113 M212.596 323.400 C 212.596 365.640,212.643 382.861,212.700 361.668 C 212.757 340.476,212.757 305.916,212.700 284.868 C 212.643 263.821,212.596 281.160,212.596 323.400 " stroke="none" fill="#4e66a4" fill-rule="evenodd"></path></g></svg>