<svg id="svg" version="1.1" xmlns="http://www.w3.org/2000/svg" xmlns:xlink="http://www.w3.org/1999/xlink" width="400" height="400" viewBox="0, 0, 400,400"><g id="svgg"><path id="path0" d="M108.000 75.651 C 107.230 75.874,105.880 76.263,105.000 76.515 C 98.287 78.436,89.200 87.351,89.200 92.017 C 89.200 92.234,89.039 92.723,88.843 93.105 C 88.370 94.025,87.600 98.298,87.600 100.000 C 87.600 101.702,88.370 105.975,88.843 106.895 C 89.039 107.277,89.200 107.843,89.200 108.154 C 89.200 112.698,98.541 121.775,105.000 123.508 C 105.880 123.744,107.341 124.131,108.246 124.368 C 110.498 124.959,114.083 124.910,117.200 124.247 C 136.827 120.072,143.930 96.594,129.799 82.600 C 126.735 79.565,122.377 76.800,120.658 76.800 C 120.322 76.800,119.948 76.639,119.826 76.442 C 119.316 75.617,110.215 75.008,108.000 75.651 M87.600 225.000 L 87.600 312.400 112.400 312.400 L 137.200 312.400 137.200 225.000 L 137.200 137.600 112.400 137.600 L 87.600 137.600 87.600 225.000 M162.800 225.000 L 162.800 312.400 187.600 312.400 L 212.400 312.400 212.400 259.806 C 212.400 208.216,212.455 205.626,213.613 202.600 C 213.781 202.160,214.149 201.170,214.429 200.400 C 219.728 185.860,245.218 182.335,256.853 194.534 C 257.924 195.656,258.800 196.733,258.800 196.926 C 258.800 197.119,259.139 197.754,259.553 198.338 C 259.967 198.922,260.618 200.300,261.001 201.400 C 262.813 206.613,262.799 206.151,262.800 260.700 L 262.800 312.400 287.619 312.400 L 312.439 312.400 312.239 260.300 C 312.129 231.645,311.868 205.860,311.659 203.000 C 310.823 191.590,309.432 182.247,307.608 175.800 C 307.359 174.920,307.004 173.660,306.819 173.000 C 299.498 146.838,278.249 134.839,245.400 138.317 C 239.205 138.972,238.637 139.073,233.600 140.413 C 223.609 143.069,217.105 149.011,214.071 158.254 C 212.505 163.025,212.400 162.467,212.400 149.333 L 212.400 137.600 187.600 137.600 L 162.800 137.600 162.800 225.000 " stroke="none" fill="#fbfbfb" fill-rule="evenodd"></path><path id="path1" d="M18.200 0.182 C 17.980 0.248,16.990 0.541,16.000 0.833 C 15.010 1.124,13.570 1.714,12.800 2.144 C 12.030 2.574,10.998 3.140,10.506 3.402 C 10.014 3.664,9.729 3.996,9.873 4.139 C 10.016 4.283,9.897 4.400,9.608 4.400 C 8.900 4.400,4.419 8.853,4.408 9.567 C 4.404 9.878,4.283 10.016,4.139 9.873 C 3.996 9.729,3.664 10.014,3.402 10.506 C 3.140 10.998,2.574 12.030,2.144 12.800 C 0.066 16.523,0.200 3.631,0.200 200.439 C 0.200 354.034,0.287 383.263,0.747 384.239 C 1.047 384.878,1.452 385.713,1.647 386.095 C 1.841 386.477,2.000 386.979,2.000 387.211 C 2.000 387.443,2.360 388.020,2.800 388.492 C 3.240 388.964,3.600 389.598,3.600 389.899 C 3.600 390.201,3.780 390.336,4.000 390.200 C 4.220 390.064,4.400 390.141,4.400 390.372 C 4.400 391.351,8.649 395.600,9.628 395.600 C 9.859 395.600,9.936 395.780,9.800 396.000 C 9.664 396.220,9.799 396.400,10.101 396.400 C 10.402 396.400,11.036 396.760,11.508 397.200 C 11.980 397.640,12.557 398.000,12.789 398.000 C 13.021 398.000,13.523 398.159,13.905 398.353 C 14.287 398.548,15.122 398.953,15.761 399.253 C 17.498 400.072,382.502 400.072,384.239 399.253 C 384.878 398.953,385.713 398.548,386.095 398.353 C 386.477 398.159,387.062 398.000,387.395 398.000 C 387.728 398.000,388.000 397.850,388.000 397.668 C 388.000 397.485,388.489 397.080,389.088 396.768 C 390.703 395.925,392.048 394.710,395.400 391.069 C 395.840 390.591,396.455 389.705,396.768 389.100 C 397.080 388.495,397.485 388.000,397.668 388.000 C 397.850 388.000,398.000 387.728,398.000 387.395 C 398.000 387.062,398.159 386.477,398.353 386.095 C 398.548 385.713,398.953 384.878,399.253 384.239 C 400.072 382.502,400.072 17.498,399.253 15.761 C 398.953 15.122,398.548 14.287,398.353 13.905 C 398.159 13.523,398.000 13.021,398.000 12.789 C 398.000 12.557,397.640 11.980,397.200 11.508 C 396.760 11.036,396.400 10.402,396.400 10.101 C 396.400 9.799,396.220 9.664,396.000 9.800 C 395.780 9.936,395.600 9.859,395.600 9.628 C 395.600 8.649,391.351 4.400,390.372 4.400 C 390.141 4.400,390.064 4.220,390.200 4.000 C 390.336 3.780,390.201 3.600,389.899 3.600 C 389.598 3.600,388.964 3.240,388.492 2.800 C 388.020 2.360,387.443 2.000,387.211 2.000 C 386.792 2.000,386.019 1.655,384.300 0.700 C 383.494 0.252,19.667 -0.263,18.200 0.182 M118.800 75.200 C 118.800 75.420,119.329 75.600,119.976 75.600 C 120.623 75.600,121.264 75.780,121.400 76.000 C 121.536 76.220,121.997 76.400,122.424 76.400 C 122.851 76.400,123.200 76.580,123.200 76.800 C 123.200 77.020,123.467 77.200,123.792 77.200 C 127.032 77.200,134.536 85.385,136.809 91.400 C 138.448 95.734,138.368 106.966,136.686 108.647 C 136.529 108.805,136.400 109.263,136.400 109.667 C 136.400 110.070,136.220 110.400,136.000 110.400 C 135.780 110.400,135.600 110.680,135.600 111.022 C 135.600 112.058,132.396 116.460,129.897 118.856 C 122.436 126.011,109.596 127.520,100.038 122.364 C 96.982 120.716,91.200 115.380,91.200 114.209 C 91.200 113.911,91.065 113.607,90.900 113.533 C 90.468 113.341,88.800 110.028,88.800 109.362 C 88.800 109.053,88.620 108.800,88.400 108.800 C 88.180 108.800,88.000 108.271,88.000 107.624 C 88.000 106.977,87.820 106.336,87.600 106.200 C 87.362 106.053,87.200 103.537,87.200 100.000 C 87.200 96.463,87.362 93.947,87.600 93.800 C 87.820 93.664,88.000 93.023,88.000 92.376 C 88.000 91.729,88.180 91.200,88.400 91.200 C 88.620 91.200,88.800 90.947,88.800 90.638 C 88.800 89.972,90.468 86.659,90.900 86.467 C 91.065 86.393,91.200 86.074,91.200 85.758 C 91.200 83.949,100.746 76.400,103.034 76.400 C 103.346 76.400,103.600 76.220,103.600 76.000 C 103.600 75.780,104.129 75.600,104.776 75.600 C 105.423 75.600,106.064 75.420,106.200 75.200 C 106.348 74.961,108.937 74.800,112.624 74.800 C 116.475 74.800,118.800 74.951,118.800 75.200 M137.901 225.100 L 138.002 312.800 112.601 312.800 L 87.200 312.800 87.200 224.997 L 87.200 137.194 112.500 137.297 L 137.800 137.400 137.901 225.100 M212.820 147.500 L 212.840 157.800 213.653 156.000 C 215.192 152.592,216.529 150.302,217.887 148.750 C 219.835 146.523,220.747 145.676,221.989 144.943 C 222.655 144.549,223.200 144.086,223.200 143.914 C 223.200 143.741,223.545 143.600,223.967 143.600 C 224.388 143.600,224.793 143.465,224.867 143.300 C 225.059 142.868,228.372 141.200,229.038 141.200 C 229.347 141.200,229.600 141.020,229.600 140.800 C 229.600 140.580,230.039 140.400,230.576 140.400 C 231.113 140.400,231.664 140.220,231.800 140.000 C 231.936 139.780,232.566 139.600,233.200 139.600 C 233.834 139.600,234.464 139.420,234.600 139.200 C 234.736 138.980,235.521 138.800,236.344 138.800 C 237.167 138.800,238.011 138.636,238.220 138.435 C 239.581 137.129,272.000 137.129,272.000 138.436 C 272.000 138.636,272.720 138.800,273.600 138.800 C 274.480 138.800,275.200 138.980,275.200 139.200 C 275.200 139.420,275.742 139.600,276.405 139.600 C 277.068 139.600,277.923 139.759,278.305 139.953 C 278.687 140.148,279.540 140.529,280.200 140.800 C 280.860 141.071,281.713 141.452,282.095 141.647 C 282.477 141.841,283.062 142.000,283.395 142.000 C 283.728 142.000,284.000 142.180,284.000 142.400 C 284.000 142.620,284.360 142.800,284.800 142.800 C 285.240 142.800,285.600 142.980,285.600 143.200 C 285.600 143.420,285.788 143.600,286.018 143.600 C 287.724 143.600,297.291 151.799,299.040 154.761 C 299.443 155.442,299.892 156.000,300.038 156.000 C 300.184 156.000,300.527 156.540,300.800 157.200 C 301.073 157.860,301.455 158.400,301.649 158.400 C 301.842 158.400,302.000 158.760,302.000 159.200 C 302.000 159.640,302.151 160.000,302.336 160.000 C 303.303 160.000,308.800 174.646,308.800 177.223 C 308.800 177.844,308.980 178.464,309.200 178.600 C 309.420 178.736,309.600 179.546,309.600 180.400 C 309.600 181.254,309.780 182.064,310.000 182.200 C 310.220 182.336,310.400 183.416,310.400 184.600 C 310.400 185.784,310.580 186.864,310.800 187.000 C 311.020 187.136,311.200 188.371,311.200 189.744 C 311.200 191.117,311.368 192.411,311.574 192.620 C 312.314 193.371,312.459 202.221,312.631 257.103 L 312.806 312.806 287.503 312.703 L 262.200 312.600 261.989 259.800 L 261.778 207.000 260.869 204.000 C 259.778 200.403,259.110 198.800,258.702 198.800 C 258.536 198.800,258.400 198.510,258.400 198.155 C 258.400 197.314,252.686 191.600,251.845 191.600 C 251.490 191.600,251.200 191.456,251.200 191.279 C 251.200 190.638,245.638 189.054,241.028 188.381 C 237.806 187.911,231.473 188.373,229.281 189.238 C 228.776 189.437,228.082 189.600,227.738 189.600 C 224.735 189.600,218.023 194.988,216.368 198.728 C 216.058 199.428,215.669 200.000,215.502 200.000 C 215.336 200.000,215.200 200.349,215.200 200.776 C 215.200 201.203,215.020 201.664,214.800 201.800 C 214.580 201.936,214.400 202.541,214.400 203.144 C 214.400 203.747,214.235 204.411,214.032 204.620 C 213.244 205.435,213.115 212.307,212.957 261.703 L 212.794 312.806 187.497 312.703 L 162.200 312.600 162.097 225.400 C 162.041 177.440,162.080 137.975,162.185 137.700 C 162.334 137.307,167.785 137.200,187.587 137.200 L 212.800 137.200 212.820 147.500 " stroke="none" fill="#047cb4" fill-rule="evenodd"></path><path id="path2" d="M87.320 100.000 C 87.320 101.210,87.395 101.705,87.487 101.100 C 87.578 100.495,87.578 99.505,87.487 98.900 C 87.395 98.295,87.320 98.790,87.320 100.000 M100.329 137.500 C 107.220 137.561,118.380 137.561,125.129 137.500 C 131.878 137.438,126.240 137.388,112.600 137.388 C 98.960 137.388,93.438 137.438,100.329 137.500 M187.494 137.498 L 212.387 137.606 212.503 148.503 L 212.619 159.400 212.609 148.400 L 212.600 137.400 187.600 137.395 L 162.600 137.391 187.494 137.498 M253.700 137.494 C 254.745 137.576,256.455 137.576,257.500 137.494 C 258.545 137.412,257.690 137.344,255.600 137.344 C 253.510 137.344,252.655 137.412,253.700 137.494 M87.399 225.300 L 87.400 312.600 112.300 312.605 L 137.200 312.609 112.401 312.502 L 87.602 312.394 87.500 225.197 L 87.397 138.000 87.399 225.300 M311.709 198.800 C 311.709 199.790,311.787 200.195,311.882 199.700 C 311.978 199.205,311.978 198.395,311.882 197.900 C 311.787 197.405,311.709 197.810,311.709 198.800 M212.498 261.297 L 212.400 312.394 187.500 312.500 L 162.600 312.606 187.513 312.703 C 207.146 312.779,212.465 312.694,212.615 312.300 C 212.720 312.025,212.759 288.940,212.701 261.000 L 212.597 210.200 212.498 261.297 M312.498 262.097 L 312.400 312.394 287.500 312.500 L 262.600 312.606 287.513 312.703 C 307.146 312.779,312.465 312.694,312.615 312.300 C 312.720 312.025,312.759 289.300,312.701 261.800 L 312.597 211.800 312.498 262.097 " stroke="none" fill="#5eacd1" fill-rule="evenodd"></path><path id="path3" d="M107.200 75.600 C 106.396 75.857,106.357 75.923,107.000 75.932 C 107.440 75.938,108.160 75.789,108.600 75.600 C 109.619 75.162,108.568 75.162,107.200 75.600 M116.200 75.581 C 116.968 75.929,119.110 76.156,118.767 75.853 C 118.675 75.772,117.880 75.596,117.000 75.462 C 115.885 75.293,115.642 75.329,116.200 75.581 M101.689 77.465 C 100.968 77.820,100.443 78.177,100.524 78.257 C 100.695 78.428,103.200 77.224,103.200 76.971 C 103.200 76.729,103.147 76.746,101.689 77.465 M97.680 79.896 C 96.568 80.718,95.717 81.451,95.790 81.523 C 95.862 81.595,96.794 80.992,97.861 80.183 C 100.132 78.460,100.201 78.400,99.917 78.400 C 99.798 78.400,98.792 79.073,97.680 79.896 M126.800 79.664 C 128.726 81.595,132.032 84.398,130.800 83.055 C 130.030 82.216,128.680 80.974,127.800 80.296 C 126.920 79.618,126.470 79.333,126.800 79.664 M93.600 83.600 C 92.903 84.480,92.400 85.200,92.483 85.200 C 92.565 85.200,93.295 84.480,94.104 83.600 C 94.913 82.720,95.416 82.000,95.221 82.000 C 95.027 82.000,94.297 82.720,93.600 83.600 M87.822 95.822 C 87.672 96.625,87.628 97.362,87.726 97.460 C 87.824 97.557,88.027 96.981,88.178 96.178 C 88.328 95.375,88.372 94.638,88.274 94.540 C 88.176 94.443,87.973 95.019,87.822 95.822 M137.340 100.000 C 137.340 101.870,137.409 102.635,137.493 101.700 C 137.577 100.765,137.577 99.235,137.493 98.300 C 137.409 97.365,137.340 98.130,137.340 100.000 M87.680 103.000 C 87.680 103.440,87.824 104.250,88.000 104.800 C 88.254 105.592,88.320 105.633,88.320 105.000 C 88.320 104.560,88.176 103.750,88.000 103.200 C 87.746 102.408,87.680 102.367,87.680 103.000 M133.052 113.665 C 132.453 114.580,132.253 115.088,132.608 114.794 C 133.212 114.292,134.585 112.000,134.281 112.000 C 134.205 112.000,133.652 112.749,133.052 113.665 M93.551 116.338 C 94.221 117.185,95.087 118.130,95.474 118.438 C 95.861 118.747,95.390 118.055,94.426 116.900 C 92.406 114.478,91.738 114.049,93.551 116.338 M129.785 117.700 L 127.800 119.800 129.900 117.815 C 131.055 116.723,132.000 115.778,132.000 115.715 C 132.000 115.417,131.629 115.749,129.785 117.700 M99.200 121.164 C 99.750 121.614,100.380 121.983,100.600 121.985 C 101.028 121.988,100.305 121.434,99.000 120.760 C 98.469 120.485,98.536 120.621,99.200 121.164 M121.400 123.014 C 120.740 123.317,120.470 123.566,120.800 123.568 C 121.130 123.570,121.850 123.314,122.400 123.000 C 123.665 122.277,122.989 122.287,121.400 123.014 M106.033 124.147 C 106.125 124.228,106.920 124.404,107.800 124.538 C 108.915 124.707,109.158 124.671,108.600 124.419 C 107.832 124.071,105.690 123.844,106.033 124.147 M116.400 124.400 C 115.056 124.831,116.508 124.831,118.200 124.400 C 119.278 124.126,119.298 124.094,118.400 124.087 C 117.850 124.083,116.950 124.224,116.400 124.400 M137.396 225.000 C 137.396 273.180,137.443 292.949,137.500 268.932 C 137.557 244.915,137.557 205.495,137.500 181.332 C 137.443 157.169,137.396 176.820,137.396 225.000 M162.596 225.000 C 162.596 273.180,162.643 292.949,162.700 268.932 C 162.757 244.915,162.757 205.495,162.700 181.332 C 162.643 157.169,162.596 176.820,162.596 225.000 M245.600 138.000 C 243.984 138.251,243.943 138.282,245.200 138.300 C 245.970 138.312,247.590 138.184,248.800 138.017 C 250.971 137.717,250.976 137.713,249.200 137.716 C 248.210 137.718,246.590 137.846,245.600 138.000 M262.400 138.020 C 264.950 138.474,267.221 138.436,265.000 137.977 C 264.120 137.795,262.770 137.658,262.000 137.673 C 260.695 137.698,260.722 137.722,262.400 138.020 M239.600 138.800 C 238.796 139.057,238.757 139.123,239.400 139.132 C 239.840 139.138,240.560 138.989,241.000 138.800 C 242.019 138.362,240.968 138.362,239.600 138.800 M269.400 138.800 C 269.840 138.989,270.470 139.144,270.800 139.144 C 271.178 139.144,271.104 139.017,270.600 138.800 C 270.160 138.611,269.530 138.456,269.200 138.456 C 268.822 138.456,268.896 138.583,269.400 138.800 M235.600 139.600 C 234.776 139.864,234.741 139.926,235.400 139.954 C 235.840 139.973,236.470 139.813,236.800 139.600 C 237.501 139.147,237.014 139.147,235.600 139.600 M273.200 139.582 C 273.530 139.805,274.145 139.991,274.567 139.994 C 275.590 140.002,275.271 139.773,273.800 139.444 C 272.924 139.248,272.762 139.285,273.200 139.582 M227.300 142.389 C 226.365 142.814,225.600 143.251,225.600 143.361 C 225.600 143.588,228.671 142.262,229.071 141.862 C 229.479 141.454,229.134 141.557,227.300 142.389 M285.200 144.020 C 286.587 144.961,287.378 145.235,286.400 144.436 C 285.850 143.986,285.220 143.617,285.000 143.615 C 284.780 143.613,284.870 143.796,285.200 144.020 M220.776 146.831 L 218.600 148.861 220.900 146.954 C 223.011 145.204,223.419 144.800,223.076 144.800 C 223.008 144.800,221.973 145.714,220.776 146.831 M289.800 146.880 C 290.460 147.384,292.428 149.192,294.173 150.898 C 295.918 152.604,297.443 154.000,297.562 154.000 C 298.073 154.000,292.038 148.227,290.400 147.149 C 289.410 146.498,289.140 146.377,289.800 146.880 M217.468 150.500 C 216.932 151.215,216.201 152.430,215.842 153.200 C 215.176 154.627,215.247 154.538,217.473 151.142 C 218.923 148.930,218.920 148.560,217.468 150.500 M298.340 155.516 C 298.833 156.209,299.444 156.904,299.697 157.060 C 299.950 157.217,299.754 156.777,299.260 156.084 C 298.767 155.391,298.156 154.696,297.903 154.540 C 297.650 154.383,297.846 154.823,298.340 155.516 M213.677 158.138 C 213.415 158.864,213.209 159.714,213.219 160.028 C 213.230 160.343,213.512 159.818,213.847 158.861 C 214.182 157.905,214.388 157.055,214.305 156.971 C 214.222 156.888,213.939 157.413,213.677 158.138 M300.600 158.800 C 300.941 159.460,301.311 160.000,301.421 160.000 C 301.531 160.000,301.341 159.460,301.000 158.800 C 300.659 158.140,300.289 157.600,300.179 157.600 C 300.069 157.600,300.259 158.140,300.600 158.800 M303.078 163.395 C 303.444 164.162,303.814 164.719,303.901 164.632 C 304.084 164.449,302.870 162.000,302.596 162.000 C 302.495 162.000,302.712 162.628,303.078 163.395 M306.806 173.033 C 306.809 173.455,306.995 174.070,307.218 174.400 C 307.515 174.838,307.552 174.676,307.356 173.800 C 307.027 172.329,306.798 172.010,306.806 173.033 M307.606 175.833 C 307.609 176.255,307.795 176.870,308.018 177.200 C 308.315 177.638,308.352 177.476,308.156 176.600 C 307.827 175.129,307.598 174.810,307.606 175.833 M308.406 179.233 C 308.409 179.765,308.589 180.470,308.806 180.800 C 309.082 181.222,309.123 180.985,308.942 180.000 C 308.625 178.275,308.398 177.949,308.406 179.233 M309.206 183.033 C 309.209 183.675,309.384 184.470,309.595 184.800 C 309.855 185.209,309.899 184.890,309.732 183.800 C 309.429 181.823,309.198 181.486,309.206 183.033 M310.040 187.633 C 310.062 188.385,310.230 189.450,310.413 190.000 C 310.629 190.646,310.666 190.220,310.519 188.800 C 310.259 186.283,309.981 185.607,310.040 187.633 M235.712 187.495 C 236.764 187.577,238.384 187.576,239.312 187.492 C 240.240 187.408,239.380 187.341,237.400 187.342 C 235.420 187.343,234.660 187.412,235.712 187.495 M244.433 188.143 C 244.525 188.221,245.230 188.401,246.000 188.542 C 246.985 188.723,247.222 188.682,246.800 188.406 C 246.258 188.050,244.037 187.803,244.433 188.143 M218.800 193.800 C 217.828 194.790,217.123 195.600,217.233 195.600 C 217.343 195.600,218.228 194.790,219.200 193.800 C 220.172 192.810,220.877 192.000,220.767 192.000 C 220.657 192.000,219.772 192.810,218.800 193.800 M310.847 194.433 C 310.873 195.405,311.042 196.740,311.221 197.400 C 311.427 198.157,311.465 197.566,311.325 195.800 C 311.071 192.621,310.776 191.776,310.847 194.433 M311.702 204.000 C 311.689 205.430,311.814 208.130,311.978 210.000 C 312.271 213.340,312.277 213.354,312.298 210.800 C 312.311 209.370,312.186 206.670,312.022 204.800 C 311.729 201.460,311.723 201.446,311.702 204.000 M261.444 203.800 C 261.773 205.271,262.002 205.590,261.994 204.567 C 261.991 204.145,261.805 203.530,261.582 203.200 C 261.285 202.762,261.248 202.924,261.444 203.800 M212.656 206.084 C 212.521 206.588,212.428 207.450,212.449 208.000 C 212.472 208.589,212.631 208.271,212.836 207.225 C 213.203 205.352,213.073 204.527,212.656 206.084 M262.594 260.200 C 262.594 289.020,262.642 300.751,262.700 286.269 C 262.758 271.787,262.758 248.207,262.700 233.869 C 262.642 219.531,262.594 231.380,262.594 260.200 " stroke="none" fill="#84bcdc" fill-rule="evenodd"></path><path id="path4" d="" stroke="none" fill="#78bcd8" fill-rule="evenodd"></path><path id="path5" d="M87.293 96.800 C 87.293 97.570,87.375 97.885,87.476 97.500 C 87.576 97.115,87.576 96.485,87.476 96.100 C 87.375 95.715,87.293 96.030,87.293 96.800 M87.293 103.200 C 87.293 103.970,87.375 104.285,87.476 103.900 C 87.576 103.515,87.576 102.885,87.476 102.500 C 87.375 102.115,87.293 102.430,87.293 103.200 M247.700 137.491 C 248.525 137.578,249.875 137.578,250.700 137.491 C 251.525 137.405,250.850 137.334,249.200 137.334 C 247.550 137.334,246.875 137.405,247.700 137.491 M260.291 137.489 C 261.001 137.577,262.261 137.579,263.091 137.492 C 263.921 137.405,263.340 137.333,261.800 137.331 C 260.260 137.329,259.581 137.400,260.291 137.489 M311.693 196.000 C 311.693 196.770,311.775 197.085,311.876 196.700 C 311.976 196.315,311.976 195.685,311.876 195.300 C 311.775 194.915,311.693 195.230,311.693 196.000 M312.540 208.800 C 312.540 210.670,312.609 211.435,312.693 210.500 C 312.777 209.565,312.777 208.035,312.693 207.100 C 312.609 206.165,312.540 206.930,312.540 208.800 " stroke="none" fill="#3296c4" fill-rule="evenodd"></path><path id="path6" d="M162.196 225.000 C 162.196 273.180,162.243 292.949,162.300 268.932 C 162.357 244.915,162.357 205.495,162.300 181.332 C 162.243 157.169,162.196 176.820,162.196 225.000 M254.400 193.325 C 254.400 193.394,254.985 193.979,255.700 194.625 L 257.000 195.800 255.825 194.500 C 254.730 193.288,254.400 193.016,254.400 193.325 M312.244 201.800 C 312.573 203.271,312.802 203.590,312.794 202.567 C 312.791 202.145,312.605 201.530,312.382 201.200 C 312.085 200.762,312.048 200.924,312.244 201.800 M262.194 261.800 C 262.194 289.740,262.242 301.111,262.300 287.069 C 262.358 273.027,262.358 250.167,262.300 236.269 C 262.242 222.371,262.194 233.860,262.194 261.800 " stroke="none" fill="#0d84bc" fill-rule="evenodd"></path><path id="path7" d="M137.744 100.000 C 137.744 102.090,137.812 102.945,137.894 101.900 C 137.976 100.855,137.976 99.145,137.894 98.100 C 137.812 97.055,137.744 97.910,137.744 100.000 M137.796 225.000 C 137.796 273.180,137.843 292.949,137.900 268.932 C 137.957 244.915,137.957 205.495,137.900 181.332 C 137.843 157.169,137.796 176.820,137.796 225.000 M219.375 147.300 L 218.200 148.600 219.500 147.425 C 220.215 146.779,220.800 146.194,220.800 146.125 C 220.800 145.816,220.470 146.088,219.375 147.300 M236.700 187.882 C 237.195 187.978,238.005 187.978,238.500 187.882 C 238.995 187.787,238.590 187.709,237.600 187.709 C 236.610 187.709,236.205 187.787,236.700 187.882 M312.493 204.400 C 312.493 205.170,312.575 205.485,312.676 205.100 C 312.776 204.715,312.776 204.085,312.676 203.700 C 312.575 203.315,312.493 203.630,312.493 204.400 " stroke="none" fill="#1c8cbc" fill-rule="evenodd"></path><path id="path8" d="" stroke="none" fill="#107cb8" fill-rule="evenodd"></path></g></svg>